<svg width="671" height="135" viewBox="0 0 671 135" fill="none" xmlns="http://www.w3.org/2000/svg">
<path d="M56.2755 71.6593C56.2755 71.6593 56.2024 74.9113 56.1049 79.818C56.0562 82.2642 56.0074 85.1277 55.9587 88.1782C55.8978 91.2431 55.849 94.5095 55.8003 97.7759C55.7637 101.042 55.7272 104.309 55.6906 107.359C55.6662 110.41 55.6419 113.273 55.6175 115.719C55.6053 120.597 55.5809 123.849 55.5809 123.849L49.7196 125.806C49.7196 125.806 48.5619 123.576 46.8072 120.238C45.9298 118.583 44.894 116.626 43.7851 114.539C42.6884 112.467 41.4942 110.237 40.3 108.021C39.1301 105.805 37.9237 103.575 36.8148 101.503C35.6937 99.4307 34.6457 97.4881 33.7562 95.8333C31.9527 92.5094 30.7585 90.3078 30.7585 90.3078C30.7585 90.3078 30.7341 92.9411 30.7097 96.8838C30.7097 98.8551 30.7097 101.172 30.7097 103.632C30.6975 106.107 30.7097 108.741 30.6854 111.374C30.7097 113.993 30.7341 116.64 30.7341 119.101C30.7463 121.561 30.7585 123.878 30.7829 125.835C30.8072 129.792 30.8316 132.411 30.8316 132.411L25.0799 134.584C25.0799 134.584 23.6054 131.85 21.3632 127.749C20.23 125.706 18.9261 123.317 17.5125 120.741C16.099 118.194 14.6001 115.475 13.0769 112.741C11.5659 110.007 10.0426 107.287 8.61689 104.74C7.16678 102.193 5.85072 99.8192 4.70525 97.7903C2.38995 93.7181 0.86673 91.0129 0.86673 91.0129L6.58187 88.8257C6.58187 88.8257 7.837 91.1424 9.70143 94.6246C10.6275 96.3801 11.7121 98.409 12.8697 100.582C14.0396 102.769 15.2582 105.1 16.4889 107.431C17.7075 109.762 18.9383 112.093 20.0715 114.28C21.2414 116.468 22.3015 118.511 23.2155 120.266C25.0312 123.763 26.2497 126.108 26.2497 126.108C26.2497 126.108 26.1888 123.346 26.1035 119.202C26.0548 117.13 26.006 114.726 25.9573 112.136C25.9207 109.532 25.872 106.784 25.8232 104.021C25.7867 101.244 25.7623 98.4954 25.7257 95.8909C25.7014 93.3008 25.677 90.8834 25.6526 88.8114C25.6161 84.6672 25.6039 81.8901 25.6039 81.8901L31.6846 79.7605C31.6846 79.7605 32.891 82.1203 34.731 85.6313C35.645 87.3724 36.7051 89.4301 37.8384 91.6173C38.9839 93.8188 40.1903 96.1643 41.3967 98.5097C42.6031 100.855 43.8095 103.201 44.9427 105.402C46.0638 107.604 47.0996 109.661 48.0014 111.417C49.7927 114.957 50.9869 117.317 50.9869 117.317C50.9869 117.317 50.9016 114.583 50.8407 110.482C50.8041 108.424 50.7554 106.035 50.731 103.474C50.6822 100.898 50.6457 98.1644 50.5969 95.4304C50.5726 92.6965 50.536 89.9625 50.5116 87.3868C50.4751 84.8399 50.4629 82.4369 50.4507 80.3792C50.4142 76.2639 50.402 73.5299 50.402 73.5299L56.2755 71.6593ZM68.8513 73.2853C68.8513 73.2853 69.7286 77.3431 70.5938 81.4009C71.4834 85.4586 72.3486 89.5308 72.3486 89.5308C72.3486 89.5308 76.114 88.4085 79.8794 87.2861C83.6448 86.1925 87.398 85.1277 87.398 85.1277L88.4826 90.3654C88.4826 90.3654 84.7293 91.4302 80.9883 92.5238C77.2351 93.6318 73.4819 94.7397 73.4819 94.7397C73.4819 94.7397 74.3958 98.927 75.2854 103.114C76.1871 107.287 77.1132 111.475 77.1132 111.475C77.1132 111.475 81.2442 110.251 85.3508 109.028C89.5062 107.834 93.6493 106.668 93.6493 106.668L94.7095 111.921C94.7095 111.921 93.3325 112.295 91.3097 112.885C89.2625 113.46 86.5328 114.252 83.8276 115.043C81.1102 115.849 78.3927 116.669 76.3577 117.288C74.3349 117.907 72.9822 118.309 72.9822 118.309C72.9822 118.309 72.2998 115.273 71.3006 110.712C70.801 108.438 70.2039 105.791 69.5824 102.927C68.9487 100.093 68.2785 97.0564 67.6083 94.0203C66.9381 90.9697 66.2679 87.9336 65.6342 85.0989C65.0127 82.2354 64.4156 79.5878 63.916 77.3143C62.9168 72.7529 62.2344 69.7167 62.2344 69.7167C62.2344 69.7167 63.6479 69.2851 65.7561 68.6375C67.8764 67.99 70.7035 67.141 73.5184 66.3065C76.3455 65.4863 79.1848 64.6661 81.3051 64.0473C83.4255 63.443 84.8512 63.0545 84.8512 63.0545L85.9114 68.2922C85.9114 68.2922 81.622 69.5153 77.3569 70.7528C73.0919 72.019 68.8513 73.2853 68.8513 73.2853ZM107.029 103.086C107.029 103.086 110.588 102.136 114.182 101.215C117.753 100.308 121.335 99.4163 121.335 99.4163L122.249 104.625C122.249 104.625 121.031 104.927 119.203 105.388C117.363 105.848 114.914 106.481 112.476 107.115C110.039 107.748 107.59 108.395 105.762 108.884C103.934 109.374 102.716 109.69 102.716 109.69C102.716 109.69 102.131 106.64 101.229 102.064C100.79 99.776 100.266 97.0996 99.6813 94.2361C99.133 91.3727 98.5602 88.3077 97.9631 85.2572C97.366 82.2067 96.7445 79.1417 96.2206 76.2783C95.66 73.4148 95.1116 70.7528 94.6973 68.4505C93.7956 63.8747 93.2107 60.8098 93.2107 60.8098L98.7065 59.3564C98.7065 59.3564 99.2426 62.076 100.01 66.177C100.4 68.2202 100.863 70.6233 101.351 73.1846C101.838 75.7459 102.35 78.4798 102.874 81.2138C103.398 83.9478 103.91 86.6673 104.409 89.243C104.885 91.7899 105.348 94.193 105.738 96.2506C106.518 100.352 107.029 103.086 107.029 103.086ZM121.628 79.1417C121.214 76.7387 121.043 74.4076 121.128 72.1485C121.226 69.875 121.555 67.7022 122.152 65.5582C122.737 63.3998 123.553 61.4429 124.553 59.6298C125.564 57.8312 126.783 56.2052 128.208 54.7375C129.646 53.2985 131.218 52.0898 132.936 51.1401C134.655 50.1904 136.495 49.5141 138.481 49.0681C140.796 48.5788 143.014 48.4206 145.146 48.6364C147.279 48.8666 149.302 49.4422 151.227 50.3775C153.14 51.3272 154.859 52.6078 156.394 54.1907C157.905 55.7879 159.233 57.7017 160.367 59.9464L153.762 61.2558C152.153 58.5219 150.106 56.5649 147.645 55.4425C145.207 54.277 142.441 54.0468 139.37 54.7375C136.409 55.3706 133.862 56.7807 131.791 58.896C129.707 61.0544 128.245 63.7596 127.428 67.0259C126.588 70.2491 126.502 73.8465 127.185 77.8035C127.83 81.703 129.073 84.9694 130.889 87.6458C132.668 90.2359 134.837 92.0921 137.396 93.1713C139.919 94.2505 142.636 94.4951 145.5 93.8476C148.498 93.2001 150.935 91.8619 152.811 89.8618C154.749 87.8041 156.065 85.1852 156.796 81.962L163.279 80.6526C162.84 83.1851 162.133 85.473 161.171 87.5451C160.22 89.6315 158.99 91.4878 157.515 93.1425C156.028 94.7541 154.359 96.0923 152.495 97.1284C150.654 98.1788 148.607 98.9414 146.377 99.4307C144.488 99.8623 142.636 99.9918 140.808 99.848C138.993 99.7185 137.214 99.3012 135.483 98.5961C133.741 97.8766 132.144 96.8981 130.67 95.7038C129.183 94.4951 127.818 93.0562 126.6 91.3583C125.357 89.6891 124.321 87.8329 123.492 85.7752C122.676 83.7463 122.054 81.5304 121.628 79.1417ZM192.013 90.7539C190.112 91.0705 188.248 91.1136 186.444 90.869C184.641 90.6388 182.874 90.1352 181.143 89.3438C179.437 88.5236 177.841 87.4875 176.391 86.2069C174.941 84.9406 173.625 83.4298 172.43 81.6743C171.248 79.9044 170.31 77.9762 169.542 75.8754C168.799 73.7889 168.239 71.5298 167.934 69.1268C167.593 66.695 167.52 64.3639 167.69 62.1192C167.861 59.8601 168.275 57.7017 168.945 55.6008C169.652 53.4712 170.542 51.543 171.626 49.8163C172.735 48.0752 174.039 46.5068 175.538 45.1542C177.037 43.7728 178.67 42.6504 180.4 41.7871C182.143 40.9381 184.019 40.3482 186.005 40.0172C188.016 39.6719 189.978 39.6431 191.867 39.8877C193.756 40.1611 195.559 40.7223 197.326 41.5569C199.093 42.3771 200.702 43.4419 202.152 44.7657C203.59 46.0751 204.881 47.6004 206.027 49.399C207.172 51.1977 208.074 53.1546 208.756 55.2843C209.463 57.3995 209.926 59.6874 210.17 62.148C210.414 64.5941 210.426 66.954 210.182 69.2131C209.938 71.4578 209.475 73.6162 208.744 75.6883C208.025 77.7604 207.123 79.631 206.027 81.3145C204.942 83.0125 203.663 84.5377 202.188 85.8615C200.738 87.1854 199.166 88.2502 197.46 89.056C195.766 89.8762 193.951 90.4373 192.013 90.7539ZM191.355 85.1277C194.255 84.6385 196.741 83.4298 198.874 81.4584C201.043 79.4583 202.603 76.8826 203.614 73.6882C204.662 70.4794 204.967 66.9108 204.552 62.9682C204.114 58.9535 203.078 55.572 201.372 52.8381C199.69 50.0609 197.606 48.0177 195.047 46.7658C192.488 45.5139 189.71 45.1398 186.663 45.6434C183.641 46.1614 181.058 47.3989 178.901 49.4278C176.744 51.4567 175.172 54.0899 174.173 57.3275C173.21 60.522 173.003 64.1049 173.527 68.0764C174.039 72.019 175.148 75.343 176.842 78.1057C178.609 80.8541 180.717 82.8254 183.215 84.0341C185.75 85.2428 188.467 85.6169 191.355 85.1277ZM258.852 31.8729C258.852 31.8729 259.047 34.9809 259.327 39.6287C259.461 41.9598 259.632 44.6793 259.79 47.586C259.973 50.4926 260.168 53.6007 260.363 56.7088C260.546 59.8169 260.741 62.9106 260.912 65.8316C261.094 68.7239 261.253 71.4578 261.399 73.7745C261.667 78.4223 261.874 81.5448 261.874 81.5448L256.452 82.0052C256.452 82.0052 256.293 79.6885 256.062 76.2207C255.952 74.4796 255.83 72.4651 255.684 70.2923C255.55 68.1339 255.391 65.8172 255.233 63.5006C255.087 61.1839 254.94 58.8816 254.782 56.7088C254.66 54.536 254.526 52.5215 254.416 50.7804C254.185 47.3126 254.039 44.9959 254.039 44.9959C254.039 44.9959 253.308 47.3845 252.211 50.9819C251.675 52.7805 251.041 54.8814 250.371 57.1261C249.701 59.3708 248.994 61.7594 248.275 64.1481C247.592 66.5655 246.886 68.9541 246.228 71.1988C245.582 73.458 244.973 75.5444 244.461 77.3575C243.425 80.9548 242.755 83.3578 242.755 83.3578L238.953 83.7751C238.953 83.7751 237.905 81.5591 236.333 78.2352C235.541 76.5661 234.627 74.6235 233.628 72.5658C232.628 70.4794 231.568 68.2778 230.508 66.0619C229.436 63.8459 228.363 61.6443 227.352 59.5723C226.34 57.5002 225.402 55.5864 224.586 53.9173C222.953 50.6221 221.856 48.4206 221.856 48.4206C221.856 48.4206 222.063 50.7372 222.38 54.1907C222.538 55.9318 222.721 57.9607 222.916 60.1191C223.111 62.2919 223.331 64.5941 223.538 66.9108C223.745 69.2275 223.952 71.5298 224.159 73.7026C224.366 75.861 224.537 77.8899 224.695 79.631C225 83.0988 225.232 85.4011 225.232 85.4011L219.809 86.0918C219.809 86.0918 219.529 83.0125 219.09 78.3791C218.858 76.0624 218.615 73.3428 218.334 70.4506C218.054 67.544 217.749 64.4646 217.457 61.3709C217.177 58.2772 216.884 55.1835 216.604 52.2769C216.324 49.3846 216.056 46.6795 215.848 44.3628C215.41 39.7294 215.105 36.6357 215.105 36.6357L221.161 35.8587C221.161 35.8587 222.38 38.2761 224.196 41.931C225.11 43.7584 226.158 45.9024 227.291 48.1759C228.412 50.4638 229.606 52.91 230.8 55.3706C231.982 57.8024 233.164 60.2486 234.273 62.5509C235.382 64.8388 236.406 66.9972 237.271 68.839C239.014 72.5227 240.183 74.9688 240.183 74.9688C240.183 74.9688 240.951 72.3068 242.084 68.3066C242.657 66.3209 243.34 63.9754 244.083 61.486C244.814 58.9823 245.594 56.3203 246.386 53.6583C247.178 51.0106 247.97 48.3486 248.726 45.8449C249.481 43.3555 250.188 41.0245 250.797 39.0387C252.016 35.0529 252.845 32.3909 252.845 32.3909L258.852 31.8729ZM274.316 35.6572C274.316 35.6572 274.511 39.8589 274.718 44.0318C274.925 48.2191 275.132 52.4064 275.132 52.4064C275.132 52.4064 278.995 52.1618 282.87 51.9028C286.745 51.7013 290.62 51.4855 290.62 51.4855L290.815 56.8815C290.815 56.8815 286.953 57.0829 283.102 57.3132C279.239 57.529 275.376 57.788 275.376 57.788C275.376 57.788 275.583 62.1048 275.803 66.4216C276.022 70.724 276.217 75.0264 276.217 75.0264C276.217 75.0264 280.482 74.7386 284.735 74.494C288.988 74.2494 293.24 74.0479 293.24 74.0479L293.435 79.4295C293.435 79.4295 292.022 79.5015 289.938 79.6166C287.842 79.7173 285.039 79.89 282.237 80.0339C279.446 80.2209 276.643 80.408 274.547 80.5375C272.464 80.6958 271.074 80.8109 271.074 80.8109C271.074 80.8109 270.904 77.6596 270.648 72.9687C270.526 70.6233 270.38 67.8893 270.221 64.9395C270.051 62.0185 269.905 58.8816 269.734 55.7447C269.551 52.6078 269.405 49.471 269.234 46.55C269.088 43.6001 268.942 40.8518 268.808 38.5207C268.564 33.8154 268.394 30.6929 268.394 30.6929C268.394 30.6929 269.856 30.5778 272.025 30.4339C274.206 30.2756 277.131 30.0886 280.031 29.9015C282.931 29.7288 285.856 29.5562 288.037 29.4411C290.218 29.3259 291.681 29.254 291.681 29.254L291.863 34.65C291.863 34.65 287.477 34.8658 283.09 35.1104C278.703 35.3695 274.316 35.6572 274.316 35.6572ZM343.458 28.2611L343.422 33.5708C343.422 33.5708 340.485 33.5708 337.524 33.5708C334.599 33.5564 331.662 33.5564 331.662 33.5564C331.662 33.5564 331.674 36.3623 331.687 40.564C331.699 42.6648 331.711 45.1254 331.723 47.7443C331.735 50.3775 331.735 53.169 331.748 55.9749C331.76 58.7809 331.772 61.5724 331.784 64.2056C331.796 66.8245 331.796 69.2851 331.808 71.3859C331.821 75.5876 331.833 78.3791 331.833 78.3791L326.398 78.4367C326.398 78.4367 326.361 75.6451 326.349 71.4435C326.325 69.3426 326.3 66.882 326.288 64.2632C326.264 61.6299 326.24 58.8384 326.215 56.0325C326.191 53.2266 326.166 50.4351 326.142 47.8018C326.13 45.183 326.093 42.7224 326.081 40.6216C326.057 36.4199 326.032 33.6284 326.032 33.6284C326.032 33.6284 323.071 33.6571 320.122 33.7147C317.161 33.7722 314.2 33.8154 314.2 33.8154L314.115 28.4914C314.115 28.4914 315.943 28.4482 318.697 28.405C320.074 28.3906 321.682 28.3475 323.376 28.3331C325.118 28.3043 326.946 28.2899 328.774 28.2611C330.614 28.2468 332.454 28.2324 334.172 28.2324C335.891 28.2468 337.487 28.2324 338.864 28.2468C341.618 28.2468 343.458 28.2611 343.458 28.2611ZM368.731 79.4727C366.794 79.4151 364.954 79.0698 363.211 78.4798C361.456 77.8899 359.787 77.0265 358.203 75.9185C356.643 74.7674 355.23 73.4148 353.974 71.8751C352.731 70.3355 351.635 68.5656 350.721 66.6086C349.807 64.6373 349.137 62.5365 348.698 60.3205C348.259 58.119 348.052 55.7879 348.076 53.3417C348.101 50.8955 348.345 48.5788 348.832 46.3917C349.319 44.2045 350.038 42.1612 351.025 40.2187C352.013 38.2617 353.17 36.535 354.498 35.0529C355.827 33.5564 357.325 32.2901 358.995 31.2541C360.677 30.1893 362.444 29.3979 364.284 28.8943C366.124 28.405 368.049 28.1892 370.072 28.2611C372.095 28.3187 374.02 28.6928 375.848 29.3116C377.676 29.9591 379.406 30.8656 381.002 32.0599C382.623 33.2111 384.049 34.578 385.292 36.1465C386.523 37.7437 387.583 39.5136 388.448 41.5137C389.313 43.5138 389.922 45.6146 390.3 47.845C390.678 50.0753 390.812 52.4352 390.702 54.9101C390.605 57.3707 390.252 59.673 389.703 61.8602C389.155 64.033 388.375 66.0762 387.351 67.9469C386.364 69.8606 385.194 71.5154 383.878 72.9687C382.562 74.422 381.088 75.6451 379.443 76.6812C377.822 77.7028 376.116 78.4223 374.325 78.8827C372.546 79.3576 370.669 79.5446 368.731 79.4727ZM368.878 73.8033C371.802 73.904 374.434 73.1846 376.811 71.6593C379.211 70.134 381.149 67.9037 382.574 64.9539C384.073 62.0185 384.89 58.5362 385.048 54.5648C385.207 50.5646 384.646 46.996 383.354 43.9743C382.124 40.8806 380.344 38.4632 378.005 36.7364C375.677 34.9953 372.972 34.0744 369.913 33.9449C366.879 33.8442 364.125 34.5637 361.688 36.1465C359.287 37.6861 357.362 39.9884 355.912 42.9814C354.511 45.9168 353.779 49.4134 353.731 53.428C353.67 57.3995 354.303 60.9393 355.595 63.9754C356.899 67.0403 358.715 69.4002 360.993 71.0981C363.345 72.7817 365.965 73.6882 368.878 73.8033ZM442.346 34.3478L441.907 39.6431C441.907 39.6431 438.97 39.3121 436.058 38.9812C433.121 38.6646 430.197 38.3624 430.197 38.3624C430.197 38.3624 429.989 41.1396 429.685 45.3269C429.526 47.4277 429.344 49.8739 429.161 52.4783C428.966 55.1116 428.759 57.8887 428.551 60.6803C428.344 63.4862 428.137 66.2633 427.954 68.8822C427.759 71.501 427.564 73.9472 427.418 76.0336C427.113 80.2209 426.894 83.0125 426.894 83.0125L421.496 82.4657C421.496 82.4657 421.691 79.6885 421.971 75.5012C422.105 73.4004 422.288 70.9542 422.471 68.3354C422.654 65.7165 422.848 62.9394 423.043 60.1335C423.226 57.3419 423.421 54.5504 423.604 51.9316C423.787 49.3271 423.945 46.8665 424.104 44.7801C424.384 40.5928 424.579 37.8013 424.579 37.8013C424.579 37.8013 421.63 37.5135 418.681 37.2545C415.732 36.9955 412.783 36.7364 412.783 36.7364L413.112 31.4412C413.112 31.4412 414.94 31.5707 417.682 31.8297C419.047 31.9448 420.655 32.0887 422.361 32.2326C424.079 32.4053 425.907 32.5779 427.735 32.7794C429.563 32.9377 431.391 33.1391 433.097 33.3262C434.815 33.4845 436.411 33.6571 437.776 33.8298C440.518 34.1176 442.346 34.3478 442.346 34.3478ZM466.632 87.9912C466.632 87.9912 466.157 86.6242 465.426 84.5953C464.707 82.5376 463.732 79.818 462.757 77.0985C461.77 74.3789 460.783 71.6593 460.04 69.616C459.284 67.5871 458.797 66.2201 458.797 66.2201L452.155 65.328C452.155 65.328 451.68 70.4362 451.205 75.53C450.742 80.6238 450.254 85.7177 450.254 85.7177L444.856 85.0414C444.856 85.0414 445.136 81.9333 445.551 77.2423C445.758 74.9113 446.002 72.1773 446.257 69.2563C446.501 66.3353 446.794 63.2272 447.062 60.1047C447.342 56.9822 447.622 53.8597 447.878 50.9387C448.134 48.0177 448.378 45.2837 448.585 42.9526C448.999 38.2761 449.267 35.168 449.267 35.168C449.267 35.168 452.74 35.6141 456.213 36.0601C459.686 36.5062 463.171 36.9811 463.171 36.9811C466.401 37.4271 469.094 38.4919 471.177 40.0892C473.285 41.7151 474.784 43.7009 475.65 46.0607C476.503 48.4206 476.783 50.9819 476.466 53.7878C476.088 57.2268 474.906 60.1047 472.92 62.4789C470.982 64.8244 468.302 66.2057 464.865 66.5799C464.865 66.5799 465.389 67.9756 466.181 70.0765C466.961 72.1773 467.997 74.9688 469.02 77.7747C470.044 80.5663 471.068 83.3578 471.835 85.473C472.591 87.5739 473.091 88.984 473.091 88.984L466.632 87.9912ZM452.631 60.1047L460.746 61.1983C463.756 61.6156 466.072 61.0831 467.741 59.5867C469.435 58.047 470.434 55.8167 470.739 52.9244C471.056 49.9746 470.532 47.5716 469.191 45.7442C467.899 43.9023 465.706 42.78 462.635 42.3483L454.385 41.2259C454.385 41.2259 453.959 45.9456 453.52 50.6941C453.069 55.3994 452.631 60.1047 452.631 60.1047ZM492.271 41.4849C492.271 41.4849 492.039 43.4562 491.686 46.4061C491.32 49.3415 490.833 53.2698 490.358 57.198C489.87 61.1263 489.395 65.0402 489.03 67.99C488.664 70.9398 488.432 72.8968 488.432 72.8968C487.884 77.3143 488.384 80.7246 489.895 83.1707C491.455 85.6313 493.831 87.1566 497.036 87.7322C500.192 88.3077 502.799 87.7034 504.871 85.9191C506.991 84.1348 508.356 81.0555 508.978 76.6668C508.978 76.6668 509.246 74.6954 509.66 71.76C510.062 68.8246 510.611 64.9251 511.159 60.9968C511.707 57.0829 512.256 53.1834 512.67 50.2336C513.072 47.2982 513.352 45.3556 513.352 45.3556L518.933 46.4492C518.933 46.4492 518.641 48.4062 518.227 51.3272C517.8 54.2626 517.227 58.1477 516.667 62.0472C516.094 65.9611 515.546 69.8606 515.132 72.7817C514.693 75.7027 514.413 77.6596 514.413 77.6596C513.815 81.775 512.633 85.1133 510.842 87.6602C509.063 90.1783 506.894 91.9051 504.347 92.826C501.837 93.7325 499.132 93.9483 496.231 93.4015C493.295 92.8835 490.748 91.718 488.566 89.9337C486.41 88.1494 484.813 85.732 483.765 82.7247C482.742 79.6454 482.474 76.048 482.961 71.8895C482.961 71.8895 483.193 69.947 483.558 67.0115C483.899 64.0761 484.35 60.1335 484.825 56.2196C485.289 52.3057 485.752 48.3918 486.105 45.442C486.434 42.5066 486.678 40.564 486.678 40.564L492.271 41.4849ZM532.959 54.8094C532.959 54.8094 532.326 58.9248 531.68 63.0401C531.034 67.1698 530.388 71.2852 530.388 71.2852C530.388 71.2852 534.19 72.1198 538.004 72.9975C541.818 73.8465 545.62 74.753 545.62 74.753L544.719 80.0339C544.719 80.0339 540.929 79.1417 537.151 78.2928C533.349 77.4438 529.559 76.5948 529.559 76.5948C529.559 76.5948 528.889 80.8397 528.231 85.0845C527.561 89.3294 526.903 93.5742 526.903 93.5742C526.903 93.5742 531.083 94.5095 535.275 95.4448C539.454 96.4089 543.622 97.373 543.622 97.373L542.708 102.683C542.708 102.683 541.343 102.337 539.296 101.862C537.237 101.388 534.47 100.754 531.729 100.121C528.987 99.517 526.221 98.9126 524.161 98.4666C522.102 98.0349 520.725 97.7183 520.725 97.7183C520.725 97.7183 521.188 94.639 521.895 90.0057C522.236 87.689 522.662 84.9982 523.101 82.0915C523.54 79.1993 524.003 76.1056 524.478 73.0119C524.953 69.9182 525.416 66.8389 525.843 63.9466C526.294 61.04 526.708 58.3348 527.061 56.0325C527.756 51.3991 528.219 48.2911 528.219 48.2911C528.219 48.2911 529.657 48.6076 531.802 49.0537C533.959 49.5429 536.822 50.1761 539.686 50.7948C542.55 51.4423 545.413 52.1186 547.558 52.6078C549.69 53.1115 551.128 53.4568 551.128 53.4568L550.214 58.7233C550.214 58.7233 545.913 57.7304 541.599 56.7376C537.285 55.7447 532.959 54.8094 532.959 54.8094ZM582.69 113.172L577.425 111.676C577.425 111.676 576.572 108.856 575.293 104.668C574.647 102.568 573.904 100.121 573.075 97.4881C572.259 94.8693 571.381 92.0633 570.504 89.2862C569.602 86.4947 568.712 83.6888 567.872 81.0699C567.006 78.451 566.214 76.0049 565.52 73.904C564.143 69.7311 563.217 66.9396 563.217 66.9396C563.217 66.9396 562.778 69.3714 562.108 73.0263C561.767 74.8681 561.377 76.9977 560.95 79.2856C560.548 81.5735 560.097 84.0197 559.658 86.4515C559.22 88.8833 558.769 91.3295 558.342 93.603C557.94 95.9053 557.55 98.0493 557.209 99.8767C556.539 103.532 556.1 105.978 556.1 105.978L550.775 104.64C550.775 104.64 551.323 101.56 552.14 96.9557C552.542 94.6534 553.029 91.9626 553.541 89.0847C554.053 86.2069 554.589 83.142 555.125 80.0627C555.686 76.9833 556.222 73.904 556.746 71.0406C557.258 68.1483 557.733 65.4575 558.135 63.1696C558.964 58.565 559.5 55.4857 559.5 55.4857L565.044 56.8815C565.044 56.8815 565.983 59.673 567.384 63.8459C568.091 65.9324 568.895 68.3929 569.76 70.9974C570.626 73.6162 571.527 76.4078 572.429 79.2137C573.331 82.0052 574.208 84.7967 575.037 87.4156C575.878 90.0344 576.633 92.495 577.291 94.5959C578.583 98.7831 579.448 101.589 579.448 101.589C579.448 101.589 579.936 99.1573 580.667 95.5312C581.032 93.7037 581.459 91.5885 581.91 89.315C582.373 87.0415 582.86 84.6241 583.348 82.1923C583.835 79.7605 584.322 77.3431 584.773 75.0696C585.224 72.8104 585.651 70.6808 586.016 68.8534C586.747 65.2273 587.235 62.7955 587.235 62.7955L592.731 64.3495C592.731 64.3495 592.097 67.4144 591.159 71.9902C590.696 74.2638 590.135 76.9402 589.55 79.8036C588.965 82.6527 588.344 85.7033 587.71 88.7682C587.076 91.8187 586.455 94.8692 585.858 97.7183C585.285 100.582 584.737 103.258 584.262 105.532C583.323 110.108 582.69 113.172 582.69 113.172ZM615.128 71.1557C617.419 71.8751 619.478 72.796 621.331 73.9184C623.183 75.0552 624.828 76.379 626.242 77.933C627.692 79.4295 628.861 81.1131 629.824 82.9405C630.75 84.7392 631.433 86.7249 631.871 88.8257C632.31 90.9554 632.493 93.1569 632.408 95.4448C632.334 97.7471 631.993 100.121 631.384 102.596C630.787 105.057 630.007 107.287 629.044 109.273C628.094 111.273 626.961 113.029 625.645 114.568C624.365 116.093 622.927 117.331 621.367 118.295C619.795 119.274 618.101 119.993 616.261 120.425C614.434 120.828 612.533 120.986 610.534 120.856C608.523 120.712 606.427 120.324 604.234 119.619C604.234 119.619 601.102 118.64 597.958 117.691C594.827 116.741 591.683 115.791 591.683 115.791C591.683 115.791 592.341 112.755 593.303 108.194C593.791 105.92 594.364 103.258 594.961 100.409C595.57 97.5601 596.228 94.5095 596.886 91.4734C597.52 88.4372 598.178 85.3867 598.775 82.5376C599.384 79.7029 599.969 77.0409 600.444 74.753C601.431 70.206 602.077 67.1698 602.077 67.1698C602.077 67.1698 605.343 68.1483 608.609 69.1268C611.862 70.1484 615.128 71.1557 615.128 71.1557ZM605.404 114.41C608.012 115.23 610.412 115.547 612.581 115.36C614.763 115.173 616.737 114.496 618.491 113.316C620.246 112.093 621.757 110.453 623 108.352C624.243 106.266 625.23 103.747 625.937 100.769C626.656 97.7471 626.948 94.97 626.802 92.3799C626.644 89.8042 626.059 87.4444 625.035 85.286C624.024 83.1276 622.598 81.3001 620.746 79.8036C618.906 78.3072 616.639 77.1416 613.97 76.2927L606.427 73.976C606.427 73.976 605.903 76.3502 605.124 79.9475C604.734 81.7174 604.283 83.8183 603.795 86.0486C603.308 88.2933 602.784 90.6676 602.272 93.0562C601.748 95.4448 601.224 97.8334 600.737 100.078C600.237 102.309 599.774 104.395 599.396 106.179C598.616 109.762 598.092 112.151 598.092 112.151L605.404 114.41ZM644.922 133.936C642.29 133.001 640.085 131.591 638.269 129.735C636.502 127.85 635.271 125.734 634.577 123.346C633.894 120.9 633.858 118.353 634.467 115.719L640.085 117.691C639.707 120.007 639.987 122.18 640.925 124.238C641.925 126.238 643.716 127.706 646.312 128.655C648.797 129.562 650.942 129.547 652.733 128.627C654.598 127.662 655.841 125.993 656.462 123.662C656.962 121.835 656.938 120.209 656.389 118.741C655.865 117.273 655.024 116.007 653.903 114.957C652.794 113.863 651.223 112.611 649.248 111.129C646.775 109.345 644.837 107.748 643.411 106.338C642.034 104.942 640.974 103.157 640.243 101.013C639.573 98.8119 639.585 96.2075 640.328 93.2433C640.986 90.61 642.156 88.466 643.789 86.8544C645.434 85.2284 647.445 84.2499 649.797 83.8614C652.173 83.5305 654.695 83.8327 657.401 84.8255C659.338 85.5306 661.032 86.4515 662.47 87.5883C663.896 88.7394 665.078 90.1064 665.992 91.7036C667.868 94.8549 668.453 98.3659 667.746 102.179L661.885 99.9775C662.19 98.0493 661.788 96.1643 660.691 94.2361C659.618 92.2648 657.888 90.869 655.475 89.9913C653.221 89.1711 651.21 89.1855 649.443 90.0488C647.676 90.869 646.494 92.5094 645.861 94.9556C645.434 96.6823 645.471 98.2795 646.007 99.6753C646.604 101.071 647.421 102.28 648.468 103.316C649.553 104.323 651.137 105.575 653.16 107.143C655.609 109 657.535 110.654 658.924 112.151C660.337 113.59 661.373 115.403 662.043 117.633C662.726 119.792 662.64 122.396 661.824 125.403C661.19 127.734 660.057 129.735 658.473 131.389C656.889 133.044 654.927 134.138 652.563 134.656C650.211 135.202 647.652 134.958 644.922 133.936Z" fill="black"/>
</svg>
