<svg width="279" height="275" viewBox="0 0 279 275" fill="none" xmlns="http://www.w3.org/2000/svg">
<ellipse rx="75.0002" ry="49.9999" transform="matrix(-0.774287 0.632835 -0.632851 -0.774274 229.716 263.174)" fill="#212C60"/>
<ellipse rx="75.0002" ry="49.9999" transform="matrix(-0.774287 0.632835 -0.632851 -0.774274 250.716 166.175)" fill="#212C60"/>
<ellipse rx="75.0002" ry="49.9999" transform="matrix(-0.774287 0.632835 -0.632851 -0.774274 255.716 86.1763)" fill="#212C60"/>
<ellipse rx="75.0002" ry="49.9999" transform="matrix(-0.774287 0.632835 -0.632851 -0.774274 169.715 294.174)" fill="#708FFD"/>
<ellipse rx="75.0002" ry="49.9999" transform="matrix(-0.774287 0.632835 -0.632851 -0.774274 190.715 197.175)" fill="#708FFD"/>
<ellipse rx="75.0002" ry="49.9999" transform="matrix(-0.774287 0.632835 -0.632851 -0.774274 195.715 117.176)" fill="#708FFD"/>
<ellipse rx="75.0002" ry="49.9999" transform="matrix(-0.774287 0.632835 -0.632851 -0.774274 89.7141 334.174)" fill="#87E2FF"/>
<ellipse rx="75.0002" ry="49.9999" transform="matrix(-0.774287 0.632835 -0.632851 -0.774274 110.714 237.175)" fill="#87E2FF"/>
<ellipse rx="75.0002" ry="49.9999" transform="matrix(-0.774287 0.632835 -0.632851 -0.774274 115.714 157.176)" fill="#87E2FF"/>
</svg>
