<svg width="641" height="583" viewBox="0 0 641 583" fill="none" xmlns="http://www.w3.org/2000/svg">
<g opacity="0.1">
<path d="M67.163 538.759C30.1349 506.54 24.5004 452.162 54.6275 417.537C84.7546 382.913 139.378 380.966 176.418 413.195C213.459 445.425 219.081 499.793 188.954 534.417C158.826 569.041 104.203 570.989 67.163 538.759ZM158.202 434.13C133.517 412.651 97.1015 413.95 77.0235 437.025C56.9455 460.1 60.6935 496.345 85.3789 517.824C110.064 539.303 146.48 538.005 166.558 514.93C186.636 491.855 182.888 455.609 158.202 434.13Z" fill="#212C60"/>
<path d="M487.044 252.233C519.341 280.335 566.817 278.642 593.086 248.453C619.355 218.263 614.468 171.008 582.172 142.906C549.875 114.804 502.398 116.496 476.13 146.686C449.861 176.876 454.747 224.131 487.044 252.233Z" fill="#212C60"/>
<path d="M439.421 172.417C457.439 188.094 483.924 187.15 498.579 170.307C513.234 153.465 510.508 127.103 492.49 111.426C474.473 95.7486 447.987 96.6928 433.332 113.535C418.677 130.377 421.404 156.739 439.421 172.417Z" stroke="#212C60" stroke-linecap="round" stroke-linejoin="round"/>
<path d="M494.162 178.726C498.285 182.313 504.346 182.097 507.699 178.243C511.053 174.389 510.429 168.357 506.306 164.769C502.183 161.182 496.122 161.398 492.769 165.252C489.415 169.106 490.039 175.138 494.162 178.726Z" fill="#FFF1EB"/>
</g>
</svg>
