<svg width="641" height="666" viewBox="0 0 641 666" fill="none" xmlns="http://www.w3.org/2000/svg">
<g opacity="0.1">
<path d="M67.1629 529.759C30.1349 497.54 24.5004 443.162 54.6275 408.537C84.7546 373.913 139.378 371.966 176.418 404.195C213.459 436.425 219.081 490.793 188.954 525.417C158.826 560.041 104.203 561.989 67.1629 529.759ZM158.202 425.13C133.517 403.651 97.1015 404.95 77.0235 428.025C56.9455 451.1 60.6935 487.345 85.3789 508.824C110.064 530.303 146.48 529.005 166.558 505.93C186.636 482.855 182.887 446.609 158.202 425.13Z" fill="#212C60"/>
<path d="M487.044 243.233C519.341 271.335 566.818 269.642 593.086 239.453C619.355 209.263 614.468 162.008 582.172 133.906C549.875 105.804 502.398 107.496 476.13 137.686C449.861 167.876 454.747 215.131 487.044 243.233Z" fill="#212C60"/>
<path d="M439.421 163.417C457.439 179.094 483.924 178.15 498.579 161.307C513.234 144.465 510.508 118.103 492.49 102.426C474.473 86.7485 447.987 87.6928 433.332 104.535C418.678 121.377 421.404 147.739 439.421 163.417Z" stroke="#212C60" stroke-linecap="round" stroke-linejoin="round"/>
<path d="M494.162 169.726C498.285 173.313 504.346 173.097 507.699 169.243C511.053 165.389 510.429 159.357 506.306 155.769C502.183 152.182 496.122 152.398 492.769 156.252C489.415 160.106 490.039 166.138 494.162 169.726Z" fill="#FFF1EB"/>
</g>
</svg>
