<svg width="278" height="278" viewBox="0 0 278 278" fill="none" xmlns="http://www.w3.org/2000/svg">
<ellipse cx="47.7132" cy="14.1772" rx="75" ry="50" transform="rotate(-39.2602 47.7132 14.1772)" fill="#212C60"/>
<ellipse cx="26.7132" cy="111.177" rx="75" ry="50" transform="rotate(-39.2602 26.7132 111.177)" fill="#212C60"/>
<ellipse cx="21.7132" cy="191.177" rx="75" ry="50" transform="rotate(-39.2602 21.7132 191.177)" fill="#212C60"/>
<ellipse cx="107.713" cy="-16.8228" rx="75" ry="50" transform="rotate(-39.2602 107.713 -16.8228)" fill="#708FFD"/>
<ellipse cx="86.7132" cy="80.1772" rx="75" ry="50" transform="rotate(-39.2602 86.7132 80.1772)" fill="#708FFD"/>
<ellipse cx="81.7132" cy="160.177" rx="75" ry="50" transform="rotate(-39.2602 81.7132 160.177)" fill="#708FFD"/>
<ellipse cx="187.713" cy="-56.8228" rx="75" ry="50" transform="rotate(-39.2602 187.713 -56.8228)" fill="#87E2FF"/>
<ellipse cx="166.713" cy="40.1772" rx="75" ry="50" transform="rotate(-39.2602 166.713 40.1772)" fill="#87E2FF"/>
<ellipse cx="161.713" cy="120.177" rx="75" ry="50" transform="rotate(-39.2602 161.713 120.177)" fill="#87E2FF"/>
</svg>
