<svg width="1440" height="900" viewBox="0 0 1440 900" fill="none" xmlns="http://www.w3.org/2000/svg">
<path opacity="0.3" d="M1485.67 975.188C1485.67 975.188 1484.25 974.111 1481.48 972.017C1480.09 970.97 1478.38 969.674 1476.32 968.128C1475.3 967.36 1474.2 966.523 1473.02 965.635C1471.83 964.738 1470.57 963.79 1469.23 962.773C1467.88 961.766 1466.47 960.689 1464.97 959.562C1463.48 958.435 1461.9 957.249 1460.26 956.002C1458.6 954.766 1456.89 953.459 1455.08 952.103C1453.29 950.747 1451.41 949.341 1449.47 947.865C1447.52 946.399 1445.51 944.883 1443.41 943.308C1442.37 942.52 1441.31 941.722 1440.23 940.905C1439.15 940.087 1438.05 939.259 1436.93 938.422C1435.81 937.584 1434.69 936.726 1433.54 935.859C1432.38 934.991 1431.22 934.114 1430.03 933.216C1428.85 932.329 1427.65 931.421 1426.43 930.504C1425.21 929.586 1423.98 928.659 1422.72 927.712C1421.48 926.764 1420.2 925.817 1418.91 924.84C1417.63 923.873 1416.33 922.895 1415.01 921.898C1413.69 920.911 1412.35 919.904 1411 918.887C1409.65 917.869 1408.28 916.832 1406.9 915.795C1405.51 914.748 1404.11 913.701 1402.7 912.634C1401.28 911.567 1399.85 910.49 1398.4 909.403C1396.95 908.306 1395.49 907.209 1394.01 906.093C1392.53 904.986 1391.03 903.859 1389.53 902.722C1388.01 901.585 1386.48 900.439 1384.95 899.282C1383.4 898.125 1381.85 896.948 1380.28 895.772C1378.71 894.585 1377.12 893.398 1375.51 892.192C1373.92 890.985 1372.29 889.779 1370.67 888.552C1369.03 887.325 1367.39 886.089 1365.73 884.842C1364.07 883.596 1362.39 882.339 1360.7 881.073C1359.01 879.797 1357.31 878.52 1355.59 877.234C1353.87 875.947 1352.13 874.641 1350.39 873.335C1348.64 872.028 1346.88 870.702 1345.1 869.376C1343.32 868.04 1341.54 866.703 1339.74 865.357C1337.93 864.001 1336.12 862.645 1334.28 861.269C1332.45 859.903 1330.6 858.526 1328.75 857.13C1326.89 855.744 1325.02 854.348 1323.13 852.942C1321.25 851.526 1319.34 850.11 1317.44 848.684C1315.52 847.258 1313.6 845.822 1311.65 844.376C1309.72 842.93 1307.77 841.474 1305.8 840.019C1303.84 838.553 1301.86 837.087 1299.87 835.601C1297.87 834.125 1295.87 832.629 1293.85 831.134C1291.84 829.638 1289.81 828.132 1287.76 826.626C1285.73 825.111 1283.66 823.585 1281.6 822.059C1279.53 820.533 1277.45 818.988 1275.36 817.452C1273.26 815.906 1271.16 814.351 1269.03 812.795C1266.92 811.24 1264.79 809.674 1262.64 808.098C1261.58 807.311 1260.5 806.523 1259.42 805.735C1258.33 804.947 1257.26 804.149 1256.17 803.362C1255.08 802.564 1254 801.776 1252.91 800.978C1251.81 800.181 1250.72 799.383 1249.62 798.585C1248.52 797.787 1247.42 796.99 1246.32 796.182C1245.21 795.384 1244.1 794.576 1243 793.779C1241.88 792.971 1240.77 792.163 1239.66 791.356C1238.54 790.548 1237.41 789.74 1236.29 788.932C1235.17 788.125 1234.04 787.317 1232.91 786.509C1231.78 785.691 1230.64 784.884 1229.51 784.066C1228.37 783.258 1227.22 782.441 1226.08 781.623C1224.94 780.815 1223.79 779.997 1222.63 779.18C1221.49 778.362 1220.33 777.554 1219.17 776.747C1218.01 775.939 1216.84 775.141 1215.66 774.343C1214.48 773.576 1213.28 772.828 1212.07 772.08C1210.87 771.352 1209.64 770.624 1208.41 769.906C1207.17 769.188 1205.92 768.47 1204.67 767.742C1203.42 767.024 1202.15 766.306 1200.9 765.588C1199.63 764.88 1198.36 764.162 1197.1 763.444C1195.82 762.726 1194.54 762.018 1193.27 761.3C1191.98 760.592 1190.69 759.884 1189.41 759.166C1188.11 758.458 1186.82 757.76 1185.52 757.052C1184.21 756.344 1182.91 755.646 1181.59 754.938C1180.27 754.24 1178.96 753.542 1177.63 752.844C1176.31 752.156 1174.97 751.458 1173.63 750.77C1172.3 750.082 1170.95 749.394 1169.6 748.716C1168.25 748.037 1166.89 747.349 1165.54 746.671C1164.17 746.003 1162.8 745.325 1161.43 744.657C1160.05 743.989 1158.67 743.331 1157.29 742.663C1155.9 742.004 1154.52 741.336 1153.12 740.678C1151.72 740.03 1150.32 739.372 1148.91 738.714C1147.51 738.065 1146.1 737.417 1144.68 736.769C1143.27 736.121 1141.84 735.473 1140.42 734.825C1138.99 734.186 1137.56 733.538 1136.13 732.9C1134.7 732.252 1133.26 731.614 1131.82 730.975C1130.37 730.337 1128.93 729.699 1127.48 729.061C1126.04 728.423 1124.58 727.784 1123.12 727.146C1121.67 726.508 1120.2 725.87 1118.75 725.242C1117.28 724.603 1115.82 723.965 1114.34 723.327C1112.87 722.699 1111.4 722.061 1109.92 721.432C1108.45 720.794 1106.97 720.156 1105.48 719.528C1104 718.889 1102.51 718.261 1101.03 717.623C1099.53 716.995 1098.05 716.357 1096.55 715.728C1095.05 715.09 1093.56 714.462 1092.05 713.824C1090.56 713.195 1089.05 712.557 1087.54 711.919C1086.04 711.291 1084.53 710.653 1083.02 710.024C1081.51 709.386 1080 708.758 1078.48 708.12C1076.95 707.482 1075.44 706.853 1073.92 706.215C1072.4 705.577 1070.87 704.949 1069.35 704.31C1067.82 703.672 1066.28 703.034 1064.76 702.396C1063.22 701.768 1061.69 701.129 1060.15 700.491C1058.62 699.853 1057.08 699.215 1055.53 698.577C1054 697.938 1052.45 697.3 1050.91 696.662C1049.36 696.024 1047.82 695.386 1046.26 694.747C1044.72 694.109 1043.16 693.471 1041.6 692.823C1040.05 692.185 1038.49 691.546 1036.94 690.908C1035.37 690.26 1033.82 689.622 1032.25 688.974C1030.68 688.335 1029.12 687.697 1027.55 687.049C1025.99 686.411 1024.41 685.763 1022.85 685.114C1021.27 684.476 1019.7 683.828 1018.12 683.19C1016.54 682.542 1014.97 681.893 1013.39 681.245C1011.81 680.607 1010.23 679.959 1008.65 679.311C1007.06 678.663 1005.48 678.014 1003.89 677.366C1002.3 676.718 1000.71 676.07 999.124 675.422C997.528 674.774 995.943 674.115 994.347 673.467C992.751 672.819 991.156 672.171 989.561 671.513C987.955 670.865 986.359 670.216 984.754 669.558C983.158 668.91 981.553 668.252 979.948 667.604C978.342 666.946 976.737 666.297 975.121 665.639C973.516 664.991 971.91 664.333 970.295 663.675C968.679 663.017 967.074 662.368 965.458 661.71C963.843 661.052 962.227 660.394 960.602 659.736C958.987 659.078 957.371 658.42 955.746 657.761C954.13 657.103 952.505 656.445 950.879 655.787C949.254 655.129 947.629 654.471 946.003 653.803C944.378 653.144 942.742 652.486 941.117 651.818C939.481 651.16 937.856 650.502 936.221 649.834C934.585 649.176 932.95 648.507 931.314 647.849C929.679 647.181 928.044 646.523 926.408 645.855C924.763 645.187 923.127 644.529 921.482 643.861C919.847 643.192 918.201 642.524 916.556 641.856C914.911 641.198 913.265 640.53 911.62 639.862C909.974 639.194 908.329 638.526 906.674 637.857C905.028 637.189 903.383 636.521 901.728 635.843C900.072 635.175 898.427 634.507 896.772 633.839C895.116 633.171 893.461 632.493 891.806 631.824C890.15 631.156 888.495 630.478 886.83 629.81C885.174 629.132 883.519 628.464 881.854 627.786C880.198 627.118 878.533 626.44 876.868 625.771C875.202 625.093 873.547 624.415 871.882 623.737C870.216 623.069 868.551 622.391 866.886 621.713C865.21 621.035 863.545 620.357 861.88 619.689C860.214 619.01 858.539 618.332 856.874 617.654C855.199 616.976 853.533 616.298 851.858 615.61C850.183 614.932 848.507 614.254 846.842 613.576C845.167 612.898 843.492 612.21 841.816 611.532C840.141 610.853 838.466 610.165 836.78 609.487C835.105 608.809 833.43 608.121 831.755 607.443C830.069 606.755 828.394 606.067 826.719 605.389C825.033 604.701 823.358 604.013 821.673 603.335C819.988 602.647 818.312 601.958 816.627 601.27C814.942 600.582 813.267 599.894 811.581 599.206C809.896 598.518 808.211 597.83 806.526 597.142C804.84 596.454 803.155 595.766 801.47 595.068C799.784 594.38 798.099 593.692 796.414 592.994C794.729 592.306 793.043 591.608 791.358 590.92C789.673 590.222 787.988 589.533 786.292 588.835C784.607 588.137 782.922 587.439 781.237 586.741C779.551 586.043 777.856 585.345 776.171 584.647C774.486 583.949 772.8 583.241 771.115 582.543C769.42 581.835 767.735 581.137 766.049 580.429C764.364 579.721 762.679 579.023 760.984 578.315C759.298 577.607 757.613 576.889 755.928 576.181C754.243 575.473 752.557 574.755 750.872 574.037C749.187 573.319 747.512 572.601 745.826 571.883C744.141 571.165 742.466 570.437 740.781 569.709C739.105 568.981 737.42 568.253 735.745 567.515C734.069 566.787 732.394 566.05 730.719 565.302C729.044 564.564 727.378 563.816 725.703 563.058C724.038 562.3 722.392 561.532 720.757 560.754C719.131 559.957 717.516 559.149 715.901 558.331C714.305 557.484 712.71 556.636 711.134 555.768C709.588 554.891 708.073 553.964 706.577 553.016C705.091 552.049 703.625 551.062 702.169 550.045C700.733 549.017 699.297 547.97 697.861 546.913C696.435 545.856 695.009 544.769 693.593 543.682C692.177 542.586 690.761 541.489 689.355 540.392C687.949 539.295 686.563 538.178 685.167 537.051C683.781 535.914 682.405 534.778 681.029 533.631C679.653 532.484 678.276 531.337 676.91 530.18C675.554 529.014 674.198 527.857 672.842 526.69C671.486 525.514 670.139 524.347 668.793 523.16C667.457 521.974 666.121 520.787 664.794 519.58C663.458 518.384 662.122 517.187 660.786 515.98C659.459 514.784 658.123 513.577 656.797 512.381C655.461 511.174 654.134 509.977 652.808 508.771C651.472 507.564 650.146 506.358 648.819 505.151C647.493 503.944 646.157 502.738 644.831 501.531C643.504 500.324 642.178 499.118 640.852 497.911C639.525 496.705 638.199 495.498 636.873 494.291C635.557 493.085 634.23 491.878 632.904 490.672C631.578 489.455 630.262 488.248 628.935 487.042C627.609 485.835 626.293 484.629 624.966 483.412C623.64 482.206 622.324 480.999 620.998 479.792C619.681 478.586 618.365 477.369 617.039 476.162C615.722 474.956 614.396 473.749 613.08 472.533C611.764 471.326 610.447 470.119 609.121 468.913C607.805 467.706 606.488 466.5 605.172 465.293C603.856 464.076 602.54 462.87 601.223 461.663C599.907 460.457 598.591 459.25 597.274 458.043C595.958 456.837 594.642 455.63 593.326 454.424C592.009 453.217 590.693 452.01 589.387 450.804C588.07 449.597 586.754 448.391 585.438 447.194C584.131 445.987 582.815 444.781 581.509 443.574C580.192 442.368 578.886 441.171 577.57 439.964C576.264 438.758 574.947 437.561 573.641 436.354C572.335 435.158 571.018 433.951 569.712 432.755C568.406 431.548 567.099 430.351 565.783 429.145C564.477 427.948 563.17 426.751 561.864 425.545C560.558 424.348 559.251 423.152 557.945 421.955C556.639 420.758 555.332 419.562 554.036 418.365C552.73 417.168 551.423 415.972 550.117 414.775C548.821 413.579 547.514 412.382 546.208 411.185C544.912 409.999 543.605 408.802 542.309 407.605C541.013 406.419 539.706 405.222 538.41 404.035C537.104 402.839 535.807 401.652 534.511 400.455C533.215 399.269 531.918 398.082 530.622 396.896C529.326 395.709 528.029 394.522 526.733 393.336C525.437 392.149 524.14 390.962 522.844 389.776C521.547 388.589 520.261 387.402 518.965 386.226C517.668 385.039 516.382 383.852 515.086 382.676C513.799 381.489 512.503 380.312 511.217 379.135C509.92 377.949 508.634 376.772 507.347 375.595C506.061 374.419 504.765 373.242 503.478 372.065C502.192 370.889 500.906 369.722 499.619 368.545C498.333 367.369 497.056 366.202 495.77 365.025C494.484 363.858 493.197 362.682 491.921 361.515C490.634 360.348 489.348 359.172 488.072 358.005C486.795 356.838 485.509 355.672 484.232 354.515C482.946 353.348 481.67 352.181 480.393 351.025C479.117 349.858 477.84 348.701 476.564 347.534C475.288 346.378 474.011 345.221 472.735 344.064C471.458 342.897 470.182 341.741 468.916 340.594C467.639 339.437 466.363 338.28 465.096 337.134C463.82 335.977 462.553 334.83 461.287 333.673C460.011 332.527 458.744 331.38 457.478 330.233C456.211 329.086 454.935 327.94 453.669 326.793C452.402 325.646 451.136 324.509 449.879 323.362C448.613 322.226 447.346 321.089 446.08 319.942C444.823 318.805 443.557 317.668 442.291 316.542C441.034 315.405 439.768 314.268 438.511 313.141C437.255 312.004 435.988 310.878 434.732 309.751C433.475 308.614 432.219 307.487 430.962 306.37C429.706 305.243 428.449 304.117 427.193 303C425.937 301.873 424.68 300.756 423.424 299.639C422.167 298.522 420.921 297.405 419.664 296.289C418.418 295.172 417.161 294.065 415.915 292.948C414.658 291.841 413.412 290.734 412.155 289.627C410.909 288.521 409.662 287.414 408.416 286.317C407.159 285.21 405.913 284.113 404.666 283.016C403.42 281.919 402.173 280.822 400.927 279.725C399.68 278.628 398.444 277.541 397.197 276.454C395.951 275.367 394.704 274.281 393.468 273.194C392.221 272.107 390.975 271.03 389.738 269.943C388.492 268.866 387.245 267.789 386.009 266.712C384.762 265.645 383.526 264.568 382.279 263.501C381.043 262.434 379.806 261.367 378.56 260.3C377.323 259.243 376.077 258.176 374.84 257.119C373.604 256.062 372.367 255.005 371.121 253.958C369.884 252.901 368.648 251.854 367.401 250.807C366.165 249.76 364.928 248.723 363.692 247.685C362.445 246.638 361.209 245.601 359.972 244.574C358.726 243.537 357.489 242.51 356.253 241.483C355.006 240.456 353.77 239.439 352.533 238.421C351.287 237.404 350.05 236.387 348.804 235.38C347.567 234.363 346.321 233.356 345.084 232.359C343.838 231.351 342.591 230.354 341.355 229.357C340.108 228.37 338.862 227.383 337.615 226.395C336.369 225.408 335.122 224.431 333.876 223.454C332.629 222.476 331.383 221.499 330.126 220.532C328.88 219.574 327.623 218.607 326.377 217.65C325.12 216.703 323.864 215.745 322.617 214.798C321.351 213.861 320.094 212.913 318.838 211.986C317.581 211.048 316.315 210.121 315.059 209.194C313.792 208.276 312.526 207.359 311.259 206.451C309.993 205.554 308.716 204.666 307.44 203.779C306.154 202.891 304.877 202.024 303.581 201.176C302.295 200.339 300.988 199.521 299.682 198.723C298.366 197.945 297.039 197.178 295.703 196.41C294.357 195.642 293.021 194.884 291.674 194.136C290.338 193.378 288.992 192.63 287.646 191.892C286.3 191.145 284.963 190.407 283.617 189.679C282.271 188.941 280.925 188.213 279.578 187.485C278.232 186.767 276.886 186.039 275.55 185.321C274.204 184.613 272.857 183.895 271.511 183.187C270.165 182.479 268.829 181.771 267.482 181.073C266.136 180.375 264.8 179.677 263.454 178.979C262.118 178.281 260.771 177.593 259.435 176.905C258.099 176.217 256.763 175.538 255.426 174.85C254.09 174.172 252.754 173.494 251.418 172.816C250.081 172.138 248.755 171.47 247.419 170.802C246.093 170.124 244.756 169.456 243.43 168.797C242.104 168.129 240.778 167.471 239.461 166.813C238.135 166.155 236.809 165.497 235.492 164.839C234.176 164.18 232.85 163.532 231.534 162.884C230.217 162.236 228.911 161.588 227.595 160.94C226.288 160.301 224.972 159.653 223.666 159.015C222.359 158.377 221.053 157.739 219.757 157.1C218.45 156.462 217.154 155.834 215.848 155.206C214.551 154.567 213.255 153.939 211.969 153.311C210.672 152.683 209.386 152.064 208.09 151.436C206.803 150.818 205.517 150.2 204.24 149.581C202.954 148.963 201.678 148.345 200.401 147.727C199.115 147.118 197.848 146.5 196.572 145.892C195.296 145.284 194.029 144.675 192.763 144.067C191.496 143.459 190.23 142.86 188.973 142.252C187.707 141.654 186.451 141.046 185.194 140.447C183.948 139.849 182.691 139.261 181.445 138.662C180.188 138.064 178.942 137.476 177.705 136.887C176.459 136.289 175.222 135.701 173.986 135.112C171.503 133.945 169.039 132.779 166.596 131.612C164.143 130.455 161.71 129.309 159.277 128.162C156.854 127.015 154.441 125.878 152.047 124.751C149.644 123.625 147.261 122.498 144.887 121.391C142.514 120.274 140.161 119.167 137.817 118.07C135.464 116.963 133.141 115.876 130.817 114.789C128.504 113.702 126.2 112.625 123.906 111.558C121.623 110.491 119.349 109.424 117.086 108.367C114.822 107.32 112.578 106.273 110.345 105.226C108.121 104.189 105.897 103.152 103.703 102.135C101.5 101.108 99.3157 100.091 97.1418 99.0836C94.9679 98.0664 92.814 97.0692 90.68 96.0721C88.536 95.0848 86.412 94.0976 84.298 93.1104C82.1939 92.1331 80.0998 91.1659 78.0256 90.1986C75.9415 89.2413 73.8872 88.284 71.843 87.3366C69.7888 86.3893 67.7645 85.452 65.7501 84.5146C63.7358 83.5872 61.7414 82.6598 59.767 81.7424C57.7826 80.825 55.8181 79.9175 53.8736 79.02C51.929 78.1226 50.0044 77.2251 48.0898 76.3476C46.1752 75.4601 44.2805 74.5825 42.4058 73.715C40.5211 72.8474 38.6664 71.9898 36.8216 71.1422C34.9768 70.2846 33.1519 69.447 31.347 68.6093C29.542 67.7817 27.7471 66.954 25.9721 66.1363C24.2071 65.3186 22.452 64.5109 20.7169 63.7031C18.9818 62.9054 17.2566 62.1176 15.5614 61.3298C13.8661 60.552 12.1809 59.7742 10.5156 59.0064C8.86024 58.2385 7.21487 57.4807 5.58945 56.7328C3.96402 55.9849 2.35854 55.2469 0.773003 54.519C-0.812538 53.791 -2.3881 53.0631 -3.93375 52.3551C-5.4794 51.6371 -7.01508 50.9391 -8.52084 50.241C-10.0366 49.543 -11.5224 48.8549 -12.9982 48.1768C-14.4641 47.5087 -15.92 46.8406 -17.346 46.1824C-18.782 45.5243 -20.188 44.8661 -21.5841 44.2279C-22.9802 43.5897 -24.3463 42.9615 -25.7025 42.3432C-27.0487 41.715 -28.3849 41.1067 -29.6913 40.4985C-30.9976 39.9001 -32.2939 39.3118 -33.5604 38.7234C-34.8268 38.1451 -36.0833 37.5667 -37.3098 36.9983C-39.7629 35.8715 -42.1362 34.7845 -44.4198 33.7375C-46.7034 32.6805 -48.9072 31.6733 -51.0212 30.706C-53.1353 29.7288 -55.1596 28.8014 -57.1041 27.9139C-59.0387 27.0164 -60.8935 26.1688 -62.6485 25.361C-64.4036 24.5533 -66.0789 23.7954 -67.6544 23.0675C-69.23 22.3395 -70.7158 21.6615 -72.1119 21.0233C-73.498 20.385 -74.7943 19.7867 -76.001 19.2383C-78.4042 18.1314 -80.4285 17.204 -82.0639 16.4561C-85.3247 14.9603 -87 14.1925 -87 14.1925C-87 14.1925 -86.3119 13.0856 -85.1153 11.1411C-84.517 10.1738 -83.789 9.00706 -82.9514 7.65088C-82.1137 6.30467 -81.1764 4.78893 -80.1493 3.13359C-79.1222 1.47825 -78.0153 -0.3167 -76.8386 -2.21137C-75.6719 -4.10604 -74.4354 -6.10042 -73.1589 -8.16461C-71.8825 -10.2288 -70.5662 -12.3628 -69.22 -14.5267C-67.8838 -16.6906 -66.5276 -18.8844 -65.1714 -21.0783C-63.8252 -23.2721 -62.469 -25.4659 -61.1328 -27.6199C-59.8065 -29.7738 -58.5002 -31.8978 -57.2338 -33.9421C-55.9773 -35.9963 -54.7508 -37.9707 -53.594 -39.8455C-52.4373 -41.7202 -51.3503 -43.4952 -50.3432 -45.1306C-49.336 -46.766 -48.4186 -48.2518 -47.6009 -49.5781C-46.7832 -50.9043 -46.0752 -52.0611 -45.4868 -53.0084C-44.3201 -54.9131 -43.652 -56 -43.652 -56C-43.652 -56 -41.9667 -55.2322 -38.6959 -53.7463C-37.0605 -52.9984 -35.0362 -52.0711 -32.623 -50.9741C-31.4264 -50.4257 -30.1201 -49.8373 -28.724 -49.1991C-27.3379 -48.5609 -25.8421 -47.8828 -24.2665 -47.1748C-22.691 -46.4569 -21.0157 -45.689 -19.2506 -44.8913C-17.4856 -44.0835 -15.6308 -43.2359 -13.6963 -42.3584C-11.7518 -41.4709 -9.71748 -40.5435 -7.60342 -39.5762C-5.4794 -38.6089 -3.2756 -37.6018 -0.992035 -36.5647C1.30151 -35.5176 3.68481 -34.4307 6.1379 -33.3138C7.37443 -32.7554 8.62091 -32.177 9.89732 -31.5987C11.1638 -31.0203 12.4601 -30.432 13.7764 -29.8336C15.0827 -29.2353 16.419 -28.627 17.7752 -28.0088C19.1313 -27.3905 20.4975 -26.7623 21.8936 -26.1241C23.2896 -25.4958 24.7057 -24.8477 26.1416 -24.1895C27.5776 -23.5413 29.0335 -22.8732 30.5093 -22.2051C31.9852 -21.527 33.471 -20.8489 34.9867 -20.1609C36.5024 -19.4628 38.0381 -18.7648 39.5838 -18.0568C41.1394 -17.3488 42.715 -16.6308 44.3005 -15.9128C45.896 -15.1849 47.5015 -14.4469 49.1369 -13.709C50.7623 -12.9611 52.4077 -12.2132 54.083 -11.4454C55.7483 -10.6875 57.4335 -9.91967 59.1387 -9.14186C60.8439 -8.36405 62.5591 -7.57627 64.3042 -6.78849C66.0393 -5.99073 67.8044 -5.19297 69.5794 -4.37527C71.3544 -3.56755 73.1493 -2.74985 74.9642 -1.92218C76.7791 -1.09451 78.6139 -0.256863 80.4588 0.58078C82.3036 1.42839 84.1783 2.27601 86.063 3.14357C87.9377 4.00115 89.8423 4.86871 91.7669 5.74624C93.6815 6.62377 95.6161 7.5013 97.5706 8.39878C99.5251 9.28628 101.49 10.1838 103.484 11.0912C105.468 11.9986 107.473 12.9161 109.487 13.8335C111.511 14.7609 113.546 15.6883 115.6 16.6256C117.654 17.563 119.728 18.5103 121.812 19.4577C123.897 20.415 126.001 21.3723 128.115 22.3395C130.239 23.3068 132.373 24.2841 134.517 25.2613C136.671 26.2486 138.834 27.2358 141.018 28.233C143.202 29.2302 145.396 30.2373 147.61 31.2445C149.824 32.2616 152.047 33.2788 154.291 34.2959C156.535 35.323 158.788 36.3601 161.062 37.3972C163.336 38.4343 165.629 39.4813 167.933 40.5383C170.226 41.5854 172.55 42.6524 174.883 43.7194C177.216 44.7864 179.56 45.8534 181.923 46.9403C184.277 48.0173 186.66 49.1042 189.043 50.2011C191.436 51.2881 193.84 52.395 196.253 53.5019C198.666 54.6087 201.099 55.7256 203.542 56.8425C205.996 57.9593 208.449 59.0861 210.922 60.2229C213.395 61.3597 215.878 62.4965 218.381 63.6433C219.627 64.2117 220.874 64.7901 222.13 65.3685C223.387 65.9369 224.653 66.5152 225.909 67.1036C227.176 67.6819 228.442 68.2603 229.709 68.8387C230.975 69.427 232.252 70.0054 233.518 70.5938C234.794 71.1821 236.071 71.7704 237.357 72.3588C238.634 72.9471 239.92 73.5355 241.206 74.1338C242.493 74.7221 243.789 75.3204 245.086 75.9088C246.372 76.5071 247.668 77.1054 248.975 77.7038C250.271 78.3021 251.577 78.9004 252.884 79.5087C254.19 80.107 255.496 80.7153 256.803 81.3136C258.119 81.9219 259.435 82.5302 260.751 83.1385C262.068 83.7467 263.394 84.355 264.71 84.9633C266.037 85.5816 267.363 86.1898 268.689 86.8081C270.025 87.4164 271.352 88.0347 272.688 88.6529C274.024 89.2712 275.36 89.8895 276.707 90.5177C278.043 91.1359 279.389 91.7642 280.735 92.3824C282.081 93.0107 283.428 93.6389 284.784 94.2671C286.13 94.8954 287.486 95.5236 288.842 96.1518C290.199 96.79 291.555 97.4183 292.921 98.0565C294.277 98.6947 295.643 99.3329 297.009 99.9711C298.376 100.609 299.742 101.257 301.118 101.896C302.484 102.544 303.86 103.182 305.236 103.83C306.612 104.478 307.988 105.127 309.375 105.785C310.751 106.433 312.137 107.091 313.523 107.749C314.909 108.397 316.295 109.065 317.681 109.724C319.067 110.382 320.453 111.05 321.849 111.718C323.246 112.386 324.632 113.054 326.028 113.722C327.424 114.4 328.82 115.079 330.216 115.757C331.612 116.435 333.008 117.113 334.414 117.801C335.81 118.489 337.206 119.187 338.602 119.875C340.008 120.573 341.404 121.281 342.801 121.989C344.197 122.697 345.593 123.405 346.989 124.133C348.385 124.851 349.761 125.589 351.137 126.327C352.503 127.085 353.859 127.863 355.206 128.66C356.532 129.488 357.858 130.336 359.164 131.203C360.461 132.081 361.757 132.968 363.034 133.876C364.3 134.783 365.566 135.711 366.823 136.648C368.069 137.585 369.306 138.543 370.542 139.5C371.779 140.467 373.015 141.444 374.232 142.422C375.449 143.409 376.665 144.406 377.872 145.403C379.078 146.41 380.285 147.428 381.492 148.435C382.698 149.452 383.895 150.479 385.102 151.506C386.298 152.533 387.495 153.56 388.701 154.597C389.898 155.634 391.095 156.672 392.291 157.719C393.488 158.766 394.685 159.813 395.881 160.86C397.078 161.917 398.274 162.974 399.471 164.031C400.668 165.088 401.864 166.155 403.061 167.222C404.258 168.289 405.454 169.356 406.661 170.423C407.857 171.5 409.054 172.577 410.251 173.654C411.457 174.731 412.654 175.808 413.851 176.895C415.057 177.972 416.254 179.059 417.46 180.145C418.667 181.232 419.864 182.329 421.07 183.416C422.277 184.513 423.483 185.61 424.69 186.707C425.897 187.804 427.103 188.901 428.32 190.008C429.526 191.105 430.733 192.212 431.95 193.318C433.156 194.425 434.373 195.532 435.579 196.639C436.796 197.746 438.013 198.863 439.229 199.97C440.446 201.087 441.662 202.203 442.879 203.32C444.095 204.437 445.322 205.554 446.539 206.671C447.755 207.798 448.982 208.915 450.208 210.041C451.425 211.168 452.651 212.295 453.878 213.422C455.104 214.549 456.331 215.675 457.558 216.802C458.784 217.939 460.011 219.066 461.247 220.203C462.474 221.33 463.71 222.466 464.937 223.603C466.173 224.74 467.41 225.877 468.636 227.014C469.873 228.16 471.109 229.297 472.346 230.434C473.582 231.581 474.829 232.727 476.065 233.864C477.302 235.011 478.549 236.158 479.785 237.305C481.031 238.451 482.268 239.598 483.515 240.755C484.761 241.902 486.008 243.048 487.254 244.205C488.5 245.362 489.747 246.509 490.993 247.665C492.25 248.822 493.496 249.979 494.743 251.136C495.999 252.292 497.246 253.449 498.502 254.606C499.759 255.773 501.015 256.929 502.262 258.096C503.518 259.253 504.775 260.42 506.041 261.586C507.298 262.743 508.554 263.91 509.81 265.076C511.067 266.243 512.333 267.41 513.59 268.577C514.856 269.753 516.123 270.92 517.379 272.087C518.646 273.263 519.912 274.43 521.178 275.607C522.445 276.774 523.711 277.95 524.978 279.127C526.244 280.304 527.511 281.48 528.787 282.657C530.054 283.834 531.32 285.01 532.596 286.187C533.863 287.364 535.139 288.54 536.416 289.727C537.682 290.904 538.958 292.09 540.235 293.267C541.511 294.454 542.788 295.63 544.064 296.817C545.341 298.004 546.617 299.19 547.903 300.377C549.18 301.554 550.456 302.74 551.733 303.937C553.019 305.124 554.295 306.31 555.582 307.497C556.868 308.684 558.145 309.88 559.431 311.067C560.717 312.254 562.004 313.45 563.29 314.637C564.566 315.834 565.853 317.03 567.139 318.217C568.436 319.414 569.722 320.61 571.008 321.807C572.295 322.993 573.581 324.19 574.877 325.387C576.164 326.583 577.46 327.78 578.747 328.977C580.043 330.183 581.329 331.38 582.626 332.577C583.922 333.773 585.208 334.98 586.505 336.176C587.801 337.373 589.097 338.58 590.394 339.776C591.69 340.983 592.986 342.18 594.283 343.386C595.579 344.593 596.875 345.789 598.172 346.996C599.478 348.203 600.774 349.399 602.071 350.606C603.377 351.812 604.674 353.019 605.97 354.226C607.276 355.432 608.573 356.639 609.879 357.845C611.185 359.052 612.482 360.259 613.788 361.465C615.094 362.672 616.391 363.888 617.697 365.095C619.003 366.302 620.31 367.508 621.616 368.725C622.922 369.931 624.229 371.138 625.535 372.355C626.841 373.561 628.147 374.768 629.454 375.984C630.76 377.191 632.066 378.408 633.383 379.614C634.689 380.831 635.995 382.037 637.302 383.254C638.618 384.47 639.924 385.677 641.241 386.894C642.547 388.11 643.863 389.317 645.17 390.533C646.486 391.75 647.792 392.957 649.109 394.173C650.415 395.39 651.731 396.606 653.047 397.813C654.354 399.03 655.67 400.246 656.986 401.463C658.303 402.679 659.619 403.886 660.935 405.102C662.242 406.319 663.558 407.536 664.874 408.752C666.19 409.969 667.507 411.175 668.823 412.392C670.139 413.608 671.456 414.825 672.782 416.042C674.098 417.258 675.414 418.475 676.731 419.681C678.047 420.898 679.363 422.115 680.69 423.331C682.006 424.548 683.322 425.764 684.648 426.971C685.965 428.187 687.291 429.404 688.607 430.621C689.924 431.827 691.25 433.044 692.566 434.26C693.892 435.477 695.219 436.684 696.535 437.9C697.861 439.107 699.188 440.323 700.504 441.53C701.83 442.746 703.156 443.953 704.483 445.17C705.809 446.376 707.125 447.583 708.452 448.799C709.778 450.006 711.114 451.203 712.45 452.379C713.796 453.566 715.143 454.743 716.489 455.909C717.845 457.076 719.211 458.233 720.587 459.38C721.954 460.507 723.34 461.643 724.736 462.76C726.132 463.867 727.538 464.964 728.944 466.041C730.37 467.118 731.796 468.195 733.222 469.262C734.658 470.329 736.104 471.376 737.54 472.433C738.986 473.48 740.432 474.517 741.877 475.564C743.323 476.601 744.779 477.638 746.235 478.675C747.691 479.703 749.147 480.73 750.613 481.747C752.079 482.754 753.555 483.761 755.05 484.748C756.556 485.706 758.102 486.623 759.657 487.511C761.223 488.398 762.789 489.266 764.364 490.123C765.96 490.961 767.555 491.799 769.151 492.626C770.766 493.434 772.382 494.232 774.017 495.029C775.642 495.817 777.278 496.585 778.923 497.343C780.569 498.101 782.224 498.849 783.879 499.587C785.555 500.324 787.24 501.042 788.925 501.76C790.61 502.478 792.296 503.196 793.981 503.904C795.676 504.622 797.361 505.33 799.047 506.038C800.742 506.746 802.427 507.454 804.112 508.162C805.808 508.87 807.493 509.568 809.188 510.276C810.873 510.975 812.569 511.673 814.254 512.371C815.949 513.069 817.634 513.767 819.33 514.465C821.015 515.163 822.71 515.861 824.395 516.559C826.09 517.247 827.776 517.945 829.471 518.633C831.156 519.331 832.841 520.019 834.537 520.717C836.222 521.405 837.917 522.093 839.602 522.781C841.288 523.469 842.983 524.157 844.668 524.846C846.353 525.534 848.039 526.222 849.724 526.91C851.419 527.598 853.104 528.286 854.79 528.964C856.475 529.652 858.16 530.34 859.845 531.018C861.531 531.706 863.206 532.384 864.891 533.072C866.577 533.75 868.262 534.438 869.947 535.117C871.622 535.805 873.308 536.483 874.983 537.161C876.668 537.839 878.343 538.517 880.029 539.205C881.704 539.883 883.389 540.561 885.065 541.239C886.74 541.917 888.415 542.596 890.09 543.274C891.766 543.952 893.441 544.62 895.116 545.298C896.792 545.976 898.467 546.654 900.142 547.322C901.807 548 903.483 548.678 905.158 549.347C906.823 550.025 908.499 550.703 910.164 551.371C911.829 552.039 913.505 552.717 915.17 553.385C916.835 554.063 918.5 554.731 920.166 555.4C921.831 556.078 923.496 556.746 925.162 557.414C926.827 558.082 928.482 558.75 930.148 559.418C931.803 560.086 933.468 560.754 935.124 561.423C936.779 562.091 938.444 562.759 940.1 563.427C941.755 564.095 943.41 564.763 945.066 565.431C946.721 566.089 948.366 566.758 950.022 567.426C951.677 568.084 953.323 568.752 954.968 569.42C956.623 570.078 958.269 570.746 959.914 571.404C961.559 572.063 963.205 572.731 964.85 573.389C966.495 574.047 968.141 574.715 969.786 575.373C971.422 576.031 973.067 576.69 974.702 577.348C976.338 578.006 977.983 578.664 979.618 579.322C981.254 579.98 982.889 580.638 984.525 581.297C986.15 581.955 987.786 582.613 989.421 583.271C991.046 583.919 992.672 584.577 994.307 585.236C995.933 585.884 997.558 586.542 999.183 587.19C1000.81 587.848 1002.43 588.496 1004.05 589.155C1005.68 589.803 1007.29 590.451 1008.92 591.109C1010.53 591.757 1012.15 592.405 1013.76 593.054C1015.38 593.702 1016.99 594.36 1018.61 595.008C1020.22 595.656 1021.83 596.304 1023.44 596.943C1025.05 597.591 1026.66 598.239 1028.26 598.887C1029.87 599.535 1031.47 600.174 1033.08 600.822C1034.67 601.47 1036.28 602.108 1037.87 602.756C1039.48 603.394 1041.08 604.043 1042.67 604.681C1044.27 605.319 1045.86 605.967 1047.45 606.605C1049.04 607.244 1050.64 607.882 1052.22 608.52C1053.81 609.168 1055.4 609.806 1056.98 610.445C1058.57 611.073 1060.15 611.711 1061.74 612.349C1063.31 612.987 1064.9 613.626 1066.47 614.264C1068.05 614.892 1069.63 615.53 1071.2 616.159C1072.78 616.797 1074.34 617.425 1075.92 618.063C1077.48 618.691 1079.05 619.33 1080.61 619.958C1082.18 620.586 1083.75 621.214 1085.31 621.852C1086.87 622.481 1088.43 623.109 1089.99 623.737C1091.54 624.365 1093.1 624.994 1094.65 625.622C1096.21 626.24 1097.76 626.868 1099.31 627.497C1100.86 628.125 1102.4 628.743 1103.95 629.371C1105.49 630 1107.04 630.618 1108.58 631.236C1110.12 631.864 1111.66 632.483 1113.19 633.111C1114.73 633.729 1116.26 634.347 1117.8 634.966C1119.33 635.594 1120.86 636.212 1122.39 636.83C1123.91 637.449 1125.44 638.067 1126.96 638.685C1128.48 639.303 1130.01 639.922 1131.52 640.53C1133.04 641.148 1134.55 641.766 1136.07 642.385C1137.57 642.993 1139.09 643.611 1140.6 644.229C1142.1 644.838 1143.61 645.456 1145.11 646.064C1146.61 646.683 1148.11 647.291 1149.61 647.909C1151.11 648.517 1152.6 649.136 1154.09 649.744C1155.58 650.352 1157.07 650.971 1158.55 651.579C1160.04 652.187 1161.53 652.805 1163 653.414C1164.49 654.022 1165.96 654.63 1167.44 655.248C1168.91 655.857 1170.38 656.465 1171.85 657.073C1173.31 657.692 1174.78 658.3 1176.24 658.908C1177.7 659.526 1179.16 660.135 1180.61 660.753C1182.06 661.361 1183.51 661.98 1184.96 662.588C1186.41 663.206 1187.84 663.824 1189.28 664.443C1190.71 665.061 1192.15 665.679 1193.58 666.297C1195.01 666.916 1196.43 667.534 1197.85 668.162C1199.27 668.79 1200.69 669.419 1202.09 670.047C1203.5 670.675 1204.9 671.313 1206.3 671.951C1207.7 672.59 1209.08 673.238 1210.47 673.886C1211.84 674.544 1213.22 675.202 1214.6 675.861C1215.95 676.539 1217.31 677.227 1218.66 677.925C1219.99 678.623 1221.33 679.341 1222.64 680.059C1223.94 680.787 1225.24 681.515 1226.53 682.253C1227.81 683 1229.1 683.738 1230.36 684.486C1231.64 685.234 1232.91 685.982 1234.16 686.73C1235.42 687.488 1236.68 688.246 1237.92 688.994C1239.17 689.751 1240.41 690.509 1241.66 691.267C1242.9 692.025 1244.13 692.783 1245.36 693.551C1246.6 694.309 1247.82 695.066 1249.04 695.824C1250.27 696.582 1251.48 697.34 1252.69 698.098C1253.89 698.856 1255.07 699.624 1256.25 700.421C1257.42 701.219 1258.57 702.037 1259.72 702.874C1260.87 703.712 1262.01 704.55 1263.15 705.387C1264.29 706.235 1265.42 707.073 1266.56 707.92C1267.7 708.758 1268.82 709.596 1269.95 710.433C1271.08 711.271 1272.21 712.109 1273.33 712.946C1274.45 713.784 1275.58 714.612 1276.68 715.449C1277.8 716.277 1278.92 717.114 1280.02 717.942C1281.14 718.77 1282.25 719.597 1283.34 720.425C1284.45 721.243 1285.56 722.07 1286.65 722.898C1287.75 723.716 1288.85 724.534 1289.94 725.351C1291.03 726.169 1292.12 726.987 1293.21 727.804C1294.29 728.622 1295.38 729.43 1296.46 730.247C1297.53 731.055 1298.62 731.863 1299.69 732.671C1300.76 733.478 1301.84 734.286 1302.91 735.084C1303.98 735.892 1305.04 736.689 1306.11 737.487C1308.23 739.093 1310.35 740.678 1312.45 742.264C1314.56 743.839 1316.64 745.415 1318.72 746.98C1320.8 748.546 1322.87 750.102 1324.93 751.657C1326.98 753.203 1329.03 754.739 1331.05 756.274C1333.08 757.8 1335.1 759.326 1337.11 760.841C1339.12 762.347 1341.11 763.853 1343.09 765.349C1345.07 766.844 1347.03 768.33 1349 769.806C1350.95 771.282 1352.89 772.748 1354.82 774.204C1356.76 775.67 1358.67 777.116 1360.58 778.552C1362.48 779.987 1364.38 781.413 1366.25 782.839C1368.13 784.255 1369.99 785.661 1371.84 787.068C1373.7 788.464 1375.53 789.85 1377.36 791.236C1379.18 792.612 1381 793.978 1382.79 795.334C1384.59 796.701 1386.37 798.047 1388.15 799.383C1389.91 800.719 1391.67 802.045 1393.41 803.372C1395.16 804.688 1396.88 805.994 1398.6 807.291C1400.31 808.587 1402.02 809.873 1403.71 811.14C1405.39 812.416 1407.06 813.683 1408.71 814.939C1410.38 816.186 1412.01 817.432 1413.65 818.659C1415.27 819.895 1416.89 821.112 1418.48 822.318C1420.08 823.535 1421.66 824.732 1423.23 825.918C1424.8 827.105 1426.35 828.272 1427.89 829.438C1429.43 830.605 1430.95 831.752 1432.46 832.899C1433.97 834.035 1435.46 835.162 1436.93 836.279C1438.42 837.396 1439.87 838.503 1441.32 839.6C1442.77 840.687 1444.19 841.774 1445.61 842.841C1447.02 843.908 1448.42 844.975 1449.81 846.012C1451.18 847.059 1452.55 848.096 1453.89 849.113C1455.25 850.14 1456.58 851.147 1457.9 852.144C1459.22 853.142 1460.52 854.119 1461.8 855.096C1463.09 856.063 1464.35 857.021 1465.6 857.968C1466.85 858.915 1468.08 859.853 1469.3 860.77C1470.52 861.698 1471.72 862.605 1472.9 863.492C1474.09 864.39 1475.25 865.278 1476.4 866.145C1477.55 867.013 1478.67 867.87 1479.79 868.708C1480.91 869.555 1482 870.383 1483.08 871.201C1484.16 872.018 1485.22 872.816 1486.26 873.614C1488.35 875.19 1490.36 876.715 1492.31 878.181C1494.25 879.657 1496.12 881.073 1497.92 882.429C1499.71 883.785 1501.43 885.092 1503.09 886.338C1504.73 887.585 1506.3 888.771 1507.79 889.908C1509.29 891.035 1510.7 892.112 1512.05 893.129C1513.39 894.136 1514.64 895.094 1515.83 895.991C1517.02 896.889 1518.11 897.716 1519.14 898.494C1521.17 900.04 1522.9 901.346 1524.29 902.393C1527.05 904.487 1528.48 905.564 1528.48 905.564C1528.48 905.564 1527.82 906.641 1526.66 908.536C1526.08 909.473 1525.38 910.62 1524.57 911.936C1523.77 913.253 1522.85 914.738 1521.85 916.364C1520.86 917.979 1519.78 919.744 1518.64 921.599C1517.49 923.464 1516.29 925.428 1515.04 927.463C1513.8 929.497 1512.5 931.591 1511.19 933.735C1509.88 935.869 1508.54 938.043 1507.2 940.217C1505.86 942.4 1504.52 944.574 1503.21 946.718C1501.89 948.862 1500.58 950.976 1499.33 953.021C1498.07 955.075 1496.84 957.049 1495.7 958.934C1494.54 960.809 1493.44 962.584 1492.43 964.229C1491.42 965.874 1490.49 967.38 1489.67 968.716C1488.85 970.053 1488.13 971.209 1487.54 972.177C1486.35 974.091 1485.67 975.188 1485.67 975.188Z" fill="#87E2FF"/>
<path opacity="0.25" fill-rule="evenodd" clip-rule="evenodd" d="M481.276 867.082C483.781 864.99 486.177 862.824 488.461 860.59C513.736 835.872 543.26 809 578.613 809H862.334C897.686 809 927.21 835.872 952.485 860.59C954.769 862.824 957.166 864.99 959.671 867.082C983.254 886.776 1014.69 898.406 1047.83 899.848C1047.98 899.854 1047.99 900 1047.84 900L393.111 900C392.959 900 392.965 899.854 393.117 899.848C426.259 898.406 457.693 886.776 481.276 867.082Z" fill="#87E2FF"/>
</svg>
