<svg width="1412" height="844" viewBox="0 0 1412 844" fill="none" xmlns="http://www.w3.org/2000/svg">
<path d="M374.404 102.643C372.473 94.223 378.141 82.795 386.143 81.0129C389.618 80.2445 393.495 80.6859 396.445 78.5769C401.805 74.7348 400.106 66.0371 402.191 59.5464C404.662 51.8296 413.096 47.4971 420.772 48.2982C428.789 49.132 432.388 56.5219 436.388 62.7836C439.447 67.5739 444.359 71.1871 449.842 71.9391C455.912 72.7729 461.457 68.8491 467.481 69.5194C476.394 70.5167 483.715 79.8685 482.989 89.3183C485.182 83.1056 493.832 82.1901 498.96 85.9994C504.088 89.8088 506.529 96.4138 508.691 102.643H374.388H374.404Z" stroke="#212C60" stroke-linecap="round" stroke-linejoin="round"/>
<path d="M430.133 687.117C432.141 679.057 439.261 673.171 446.444 673.662C448.266 673.776 450.135 674.267 451.865 673.613C457.132 671.634 456.175 662.822 457.271 656.495C458.461 649.645 463.419 644.135 469.165 642.239C474.911 640.342 481.259 641.797 486.418 645.296C492.349 649.334 497.586 660.811 496.257 666.91C495.778 669.117 492.55 668.561 492.72 666.305C492.936 663.525 495.022 660.403 496.906 658.719C499.779 656.152 504.119 656.119 507.023 658.653C511.394 662.479 511.966 670.588 516.661 673.825C521.666 677.291 528.045 673.204 533.837 673.972C539.383 674.724 544.078 680.594 544.325 687.117H430.164H430.133Z" stroke="#212C60" stroke-width="1.21" stroke-linecap="round" stroke-linejoin="round"/>
<path d="M91.0851 82.6831C93.4309 74.3909 101.878 68.1588 110.666 68.2361C114.422 68.2747 118.324 69.3177 121.836 68.0172C125.604 66.6137 127.877 62.8538 129.25 59.1455C130.624 55.4372 131.414 51.4584 133.59 48.1364C136.385 43.8744 141.417 41.106 146.595 41.003C151.761 40.9 156.914 43.4623 159.88 47.6085C162.481 51.2524 163.624 56.1196 167.416 58.5661C170.843 60.7808 183.545 60.2786 187.313 61.8753C191.36 63.5878 194.946 67.1802 196.648 71.1204C199.99 78.8461 200.805 85.1554 200.805 85.1554H91L91.0851 82.6703V82.6831Z" stroke="#212C60" stroke-linecap="round" stroke-linejoin="round"/>
<g opacity="0.25">
<path opacity="0.94" d="M805 424.615C808.409 400.614 830.926 386.685 849.263 382.745C867.599 378.805 887.147 378.723 903.366 367.524C940.545 341.839 945.751 268.578 986.152 251.771C1005.95 243.531 1027.91 252.409 1048.5 247.929C1072.6 242.681 1094.69 222.098 1105.8 195.318C1158.94 67.0748 1218.86 13.1225 1350.29 0.533623C1366.7 -1.0359 1383.96 0.468227 1398.31 10.3268C1417.19 23.2917 1427.79 49.2378 1433.09 74.9878C1446.62 140.613 1432.73 209.492 1431.92 277.178C1431.27 331.899 1439.25 386.113 1444.45 440.457C1451.75 516.563 1453.59 594.238 1441.03 669.297C1434.57 707.913 1423.73 746.824 1401.88 775.713C1380.03 804.602 1341.07 820.15 1310.76 807.12C1265.32 834.783 1207.61 828.963 1166.47 792.602C1150.55 778.542 1136.44 760.067 1121.46 744.176C1106.48 728.301 1090.62 715.009 1071.24 711.379C1056.1 708.535 1040.72 712.213 1025.42 713.145C999.162 714.747 976.724 703.417 968.668 670.703C965.286 656.986 964.474 642.533 962.476 628.424C958.228 598.341 945.991 574.7 919.625 572.444C898.066 570.597 873.285 581.158 854.989 561.915C838.65 544.732 840.927 511.527 826.692 491.728" fill="#87E2FF"/>
</g>
<path d="M1078.26 430.124L1123.4 431.58" stroke="#BC465D" stroke-linecap="round" stroke-linejoin="round"/>
<path d="M1100.57 453.618L1100.74 407.677" stroke="#BC465D" stroke-linecap="round" stroke-linejoin="round"/>
<path d="M1110.37 442.288L1088.91 416.555" stroke="#BC465D" stroke-linecap="round" stroke-linejoin="round"/>
<path d="M1088.33 441.798L1112.84 418.909" stroke="#BC465D" stroke-linecap="round" stroke-linejoin="round"/>
<path d="M1087.35 631.121C1092.47 631.121 1096.62 626.729 1096.62 621.312C1096.62 615.894 1092.47 611.502 1087.35 611.502C1082.23 611.502 1078.09 615.894 1078.09 621.312C1078.09 626.729 1082.23 631.121 1087.35 631.121Z" fill="#FFF1EB"/>
<path d="M1306.69 242.011C1309.25 242.011 1311.32 239.815 1311.32 237.106C1311.32 234.397 1309.25 232.201 1306.69 232.201C1304.13 232.201 1302.05 234.397 1302.05 237.106C1302.05 239.815 1304.13 242.011 1306.69 242.011Z" fill="#FFF1EB"/>
<path d="M1128.55 566.82C1131.11 566.82 1133.18 564.624 1133.18 561.915C1133.18 559.206 1131.11 557.011 1128.55 557.011C1125.99 557.011 1123.91 559.206 1123.91 561.915C1123.91 564.624 1125.99 566.82 1128.55 566.82Z" fill="#FFF1EB"/>
<path d="M1055.61 280.709C1055.61 282.263 1054.42 283.521 1052.95 283.521C1051.49 283.521 1050.3 282.263 1050.3 280.709C1050.3 279.156 1051.49 277.897 1052.95 277.897C1054.42 277.897 1055.61 279.156 1055.61 280.709Z" fill="#BC465D"/>
<path d="M1305.06 171.252C1306.53 171.252 1307.72 169.993 1307.72 168.44C1307.72 166.887 1306.53 165.628 1305.06 165.628C1303.6 165.628 1302.41 166.887 1302.41 168.44C1302.41 169.993 1303.6 171.252 1305.06 171.252Z" fill="#BC465D"/>
<path d="M1149.14 317.217C1149.14 318.77 1147.95 320.029 1146.48 320.029C1145.01 320.029 1143.82 318.77 1143.82 317.217C1143.82 315.664 1145.01 314.405 1146.48 314.405C1147.95 314.405 1149.14 315.664 1149.14 317.217Z" fill="#FFF1EB"/>
<path d="M1007.03 522.759C1008.5 522.759 1009.69 521.5 1009.69 519.947C1009.69 518.394 1008.5 517.135 1007.03 517.135C1005.57 517.135 1004.38 518.394 1004.38 519.947C1004.38 521.5 1005.57 522.759 1007.03 522.759Z" fill="#FFF1EB"/>
<path d="M1069.95 549.833C1069.95 551.386 1068.76 552.645 1067.29 552.645C1065.82 552.645 1064.63 551.386 1064.63 549.833C1064.63 548.28 1065.82 547.021 1067.29 547.021C1068.76 547.021 1069.95 548.28 1069.95 549.833Z" fill="#FFF1EB"/>
<path d="M1251.78 647.47C1251.78 649.024 1250.59 650.283 1249.12 650.283C1247.65 650.283 1246.46 649.024 1246.46 647.47C1246.46 645.917 1247.65 644.658 1249.12 644.658C1250.59 644.658 1251.78 645.917 1251.78 647.47Z" fill="#FFF1EB"/>
<path d="M881.504 533.484C881.504 535.037 880.315 536.296 878.847 536.296C877.38 536.296 876.191 535.037 876.191 533.484C876.191 531.931 877.38 530.672 878.847 530.672C880.315 530.672 881.504 531.931 881.504 533.484Z" fill="#FFEEE9"/>
<path d="M931.132 442.435C932.6 442.435 933.789 441.176 933.789 439.623C933.789 438.07 932.6 436.811 931.132 436.811C929.665 436.811 928.476 438.07 928.476 439.623C928.476 441.176 929.665 442.435 931.132 442.435Z" fill="#FFF1EB"/>
<path d="M994.677 316.857C996.144 316.857 997.334 315.598 997.334 314.045C997.334 312.492 996.144 311.233 994.677 311.233C993.21 311.233 992.02 312.492 992.02 314.045C992.02 315.598 993.21 316.857 994.677 316.857Z" fill="#FFF1EB"/>
<path d="M1037.93 425.122L1019.68 448.893L990.754 448.615L972.914 424.484L979.617 394.696L1005.81 381.666L1031.76 395.203L1037.93 425.122Z" fill="#FFEEE9"/>
<path d="M1238.03 182.32L1230.01 192.751L1217.3 192.636L1209.47 182.042L1212.42 168.963L1223.91 163.241L1235.31 169.175L1238.03 182.32Z" fill="#FFEEE9"/>
<path d="M1099.74 349.921L1087.72 337.205L1075.71 349.921L1087.72 362.638L1099.74 349.921Z" stroke="#BC465D" stroke-linecap="round" stroke-linejoin="round"/>
<path d="M960.683 372.815L955.408 367.231L950.132 372.815L955.408 378.399L960.683 372.815Z" fill="#BC465D"/>
<path d="M1339.11 294.339L1333.84 288.755L1328.56 294.339L1333.84 299.923L1339.11 294.339Z" fill="#BC465D"/>
<path d="M1068.03 486.438L1062.76 480.854L1057.48 486.438L1062.76 492.022L1068.03 486.438Z" fill="#BC465D"/>
<path d="M1341.31 614.778L1336.03 609.194L1330.76 614.778L1336.03 620.362L1341.31 614.778Z" fill="#BC465D"/>
<path d="M1390.75 160.955L1385.47 155.372L1380.19 160.955L1385.47 166.539L1390.75 160.955Z" fill="#BC465D"/>
<path d="M1196.94 591.786L1193.94 588.619L1190.95 591.786L1193.94 594.954L1196.94 591.786Z" fill="#BC465D"/>
<path d="M1186.11 711.134L1183.12 707.966L1180.12 711.134L1183.12 714.302L1186.11 711.134Z" fill="#BC465D"/>
<path d="M1016.96 589.574L1011.68 583.99L1006.41 589.574L1011.68 595.158L1016.96 589.574Z" fill="#BC465D"/>
<path d="M1040.71 614.345L1034.83 666.67L1084.27 672.891L1090.15 620.566L1040.71 614.345Z" stroke="#BC465D" stroke-linecap="round" stroke-linejoin="round"/>
<path d="M939.488 498.578C937.619 498.202 925.046 495.439 925.046 495.439L925.85 479.81L918.219 493.608L904.828 487.003L912.427 499.134C912.427 499.134 900.456 506.214 900.518 506.59L915.13 505.543L913.323 519.98L921.046 507.178L929.665 517.282L927.363 502.96L939.488 498.611V498.578Z" stroke="#BC465D" stroke-linecap="round" stroke-linejoin="round"/>
<path d="M1412.46 641.863L1440.42 642.762" stroke="#BC465D" stroke-linecap="round" stroke-linejoin="round"/>
<path d="M1184.93 670.343L1157.09 659.307L1129.26 648.272L1152.2 628.277L1175.15 608.265L1180.03 639.296L1184.93 670.343Z" fill="#FFEEE9"/>
<path d="M1260.35 274.709L1247.99 275.543L1245.47 260.077L1242.03 275.249L1230.1 274.529L1239.25 280.513L1235.76 293.952C1235.93 294.23 1245.43 283.799 1245.43 283.799L1254.79 292.497C1254.91 292.759 1250.62 281.331 1250.62 281.331L1260.33 274.693L1260.35 274.709Z" stroke="#BC465D" stroke-linecap="round" stroke-linejoin="round"/>
<path d="M1142.8 249.303L1170.76 250.185" stroke="#BC465D" stroke-linecap="round" stroke-linejoin="round"/>
<path d="M1156.63 263.853L1156.72 235.389" stroke="#BC465D" stroke-linecap="round" stroke-linejoin="round"/>
<path d="M1162.7 256.84L1149.4 240.883" stroke="#BC465D" stroke-linecap="round" stroke-linejoin="round"/>
<path d="M1149.04 256.529L1164.23 242.338" stroke="#BC465D" stroke-linecap="round" stroke-linejoin="round"/>
<path d="M44.3536 579.418C54.0621 561.541 77.7867 535.097 86.8425 516.833C93.7934 519.16 100.581 518.225 107.532 520.553C102.523 556.376 81.05 586.241 59.5772 614.095L44.3536 579.418Z" fill="#ED7572"/>
<path d="M75.3555 535.344C78.2272 530.037 81.3927 524.925 84.8518 520.041" stroke="#251E18" stroke-width="0.75" stroke-linecap="round" stroke-linejoin="round"/>
<path d="M95.0989 559.69C100.304 548.143 104.432 536.031 107.369 523.585" stroke="#251E18" stroke-width="0.75" stroke-linecap="round" stroke-linejoin="round"/>
<path d="M84.4276 495.977H113.798V521.134C113.798 525.418 110.583 528.874 106.635 528.874H91.607C87.642 528.874 84.4439 525.401 84.4439 521.134V495.977H84.4276Z" fill="#6FA8A7" stroke="#251E18" stroke-width="0.75" stroke-linecap="round" stroke-linejoin="round"/>
<path d="M91.1665 504.316C91.1665 506.643 88.5558 508.529 85.325 508.529C82.0943 508.529 79.4836 506.643 79.4836 504.316C79.4836 501.988 82.0943 500.102 85.325 500.102C88.5558 500.102 91.1665 501.988 91.1665 504.316Z" fill="#ED7572" stroke="#251E18" stroke-width="0.75" stroke-miterlimit="10"/>
<path d="M110.698 503.91C116.402 503.91 121.026 501.408 121.026 498.322C121.026 495.235 116.402 492.733 110.698 492.733C104.993 492.733 100.369 495.235 100.369 498.322C100.369 501.408 104.993 503.91 110.698 503.91Z" fill="#ED7572"/>
<path d="M121.043 518.014C121.043 521.099 116.409 523.602 110.714 523.602C105.019 523.602 100.385 521.099 100.385 518.014C100.385 514.929 105.019 512.425 110.714 512.425C116.409 512.425 121.043 514.929 121.043 518.014Z" fill="#ED7572"/>
<path d="M121.548 507.736C121.548 510.821 115.952 513.324 109.05 513.324C102.148 513.324 96.551 510.821 96.551 507.736C96.551 504.651 102.148 502.147 109.05 502.147C115.952 502.147 121.548 504.651 121.548 507.736Z" fill="#ED7572"/>
<path d="M103.959 502.553C101.772 501.53 100.369 500.014 100.369 498.322C100.369 495.236 105.003 492.733 110.698 492.733C116.392 492.733 121.026 495.236 121.026 498.322C121.026 500.173 119.346 501.812 116.768 502.835" stroke="#251E18" stroke-width="0.75" stroke-linecap="round" stroke-linejoin="round"/>
<path d="M114.434 512.813C118.301 513.624 121.043 515.652 121.043 518.014C121.043 521.099 116.409 523.602 110.714 523.602C105.019 523.602 100.385 521.099 100.385 518.014C100.385 515.916 102.539 514.082 105.737 513.13" stroke="#251E18" stroke-width="0.75" stroke-linecap="round" stroke-linejoin="round"/>
<path d="M109.066 502.147C111.97 502.147 114.63 502.588 116.751 503.328C119.688 504.351 121.565 505.938 121.565 507.736C121.565 510.821 115.968 513.324 109.066 513.324C102.164 513.324 96.5673 510.821 96.5673 507.736C96.5673 505.479 99.5859 503.522 103.926 502.641C105.493 502.323 107.238 502.147 109.066 502.147Z" stroke="#251E18" stroke-width="0.75" stroke-linecap="round" stroke-linejoin="round"/>
<path d="M85.2762 464.385C85.1783 457.227 90.5139 454.882 90.3181 449.047C90.106 442.665 84.0198 439.104 82.4208 433.321C81.246 429.055 82.1271 424.295 84.2809 420.575C86.761 416.256 90.5955 415.18 94.1362 412.254C95.9963 410.72 97.318 408.358 98.0196 405.978C98.5254 404.303 99.4392 400.16 97.4975 399.278C95.311 398.291 94.4299 400.142 93.9241 401.517C92.9614 404.162 94.2341 407.723 95.8495 409.75C99.4065 414.228 105.444 415.215 109.131 419.447C112.688 423.519 112.215 429.707 110.371 434.555C108.332 439.879 102.654 444.727 103.502 450.933C104.057 454.917 107.288 458.179 108.234 462.198C109.36 466.941 107.271 472.512 104.448 476.443C97.3833 486.281 97.2364 489.965 97.2364 489.965C97.2364 489.965 96.5837 486.422 93.6957 481.732C89.9754 475.667 85.3904 473.993 85.2599 464.402L85.2762 464.385Z" stroke="#251E18" stroke-width="0.75" stroke-linecap="round" stroke-linejoin="round"/>
<path d="M22.5869 762.325L42.4607 784.874L51.7613 774.56L30.3374 754.621L22.5869 762.325Z" fill="#D85656"/>
<path d="M1.37521 783.834C0.787803 784.733 22.8644 761.885 22.8644 761.885C28.8853 769.783 42.575 784.662 42.575 784.662C41.8571 785.526 41.3513 786.09 40.8944 786.601C39.4585 788.188 38.6753 790.321 38.708 792.543C38.8385 801.322 38.969 824.258 36.6031 828.137L34.0414 830.834C32.6055 832.35 30.2559 832.121 29.0974 830.34C18.4589 814.068 8.2772 798.219 1.35889 783.834H1.37521Z" fill="#B2A18C"/>
<path d="M1.34247 784.204C8.26078 798.59 18.4424 814.439 29.081 830.728C30.2395 832.491 32.5891 832.738 34.025 831.222L36.5867 828.525C38.9689 824.628 38.8384 801.498 38.7079 792.807C38.6752 790.691 39.3932 788.664 40.6985 787.095C44.2556 782.846 47.421 778.809 51.3697 774.684" stroke="#251E18" stroke-width="0.75" stroke-linecap="round" stroke-linejoin="round"/>
<path d="M1.37503 783.834C0.787629 784.733 30.3536 754.604 30.3536 754.604" stroke="#251E18" stroke-width="0.75" stroke-linecap="round" stroke-linejoin="round"/>
<path d="M22.9949 762.625C29.4563 770.065 35.9177 777.522 42.3792 784.962" stroke="#251E18" stroke-width="0.75" stroke-linecap="round" stroke-linejoin="round"/>
<path d="M5.17704 780.167L34.4656 830.675L34.0414 831.222C32.6871 832.95 30.1906 832.826 28.9995 830.958L12.797 805.412L0.999939 784.186L5.17704 780.167Z" fill="#251E18"/>
<path d="M30.5496 753.951L51.7614 774.56L28.0042 757.371L30.5496 753.951Z" fill="#251E18"/>
<path d="M28.6078 821.878C31.3653 819.551 34.8734 818.299 38.3652 818.37" stroke="#251E18" stroke-width="0.75" stroke-linecap="round" stroke-linejoin="round"/>
<path d="M33.47 808.585C35.167 808.939 36.9129 809.045 38.6261 808.903" stroke="#251E18" stroke-width="0.75" stroke-linecap="round" stroke-linejoin="round"/>
<path d="M32.3933 800.053C34.2861 800.282 36.1951 800.511 38.0879 800.74" stroke="#251E18" stroke-width="0.75" stroke-linecap="round" stroke-linejoin="round"/>
<path d="M32.6706 792.084C34.4818 792.595 36.2766 793.124 38.0878 793.636" stroke="#251E18" stroke-width="0.75" stroke-linecap="round" stroke-linejoin="round"/>
<path d="M22.3261 782.458C24.579 782.458 26.4053 780.485 26.4053 778.051C26.4053 775.617 24.579 773.644 22.3261 773.644C20.0732 773.644 18.2469 775.617 18.2469 778.051C18.2469 780.485 20.0732 782.458 22.3261 782.458Z" stroke="#251E18" stroke-width="0.75" stroke-linecap="round" stroke-linejoin="round"/>
<path d="M106.553 697.184C104.791 707.814 102.36 721.019 96.4367 729.71C93.0918 734.629 68.2903 774.225 60.5399 783.481C48.6612 770.911 27.221 752.382 16.1746 738.966C27.2863 722.535 48.6286 711.358 54.9269 699.864C46.2627 692.389 37.5985 684.931 28.9343 677.456C34.9388 674.794 44.5494 675.182 50.7498 677.227C69.8241 683.521 87.4788 690.872 106.553 697.166V697.184Z" fill="#41369B"/>
<path d="M106.341 697.184C104.579 707.814 102.148 721.019 96.2246 729.71C92.8797 734.629 68.0782 774.225 60.3277 783.481C48.4491 770.911 27.2047 752.382 16.1746 738.966C27.2863 722.535 48.4165 711.358 54.7148 699.863C46.0506 692.389 37.109 683.997 28.4448 676.522" stroke="#251E18" stroke-width="0.75" stroke-linecap="round" stroke-linejoin="round"/>
<path d="M43.6685 760.88C55.645 746.512 66.5609 731.103 76.2857 714.884C80.2833 708.202 84.1667 701.292 89.6165 695.932" stroke="#251E18" stroke-width="0.75" stroke-linecap="round" stroke-linejoin="round"/>
<path d="M105.004 794.623L133.281 797.567L132.938 785.473L105.297 784.539L105.004 794.623Z" fill="#ED7572"/>
<path d="M103.698 830.746C103.878 831.821 105.004 794.64 105.004 794.64C114.435 795.61 123.849 796.597 133.28 797.567H133.117C133.183 798.942 133.248 800.335 133.313 801.71C133.444 804.442 134.521 807.016 136.348 808.903C140.949 813.716 149.973 823.359 154.655 829.811C156.564 832.438 157.609 835.682 157.576 839.032C157.56 841.13 155.798 842.734 153.872 842.364C135.663 839.014 118.041 835.612 103.698 830.728V830.746Z" fill="#B2A18C"/>
<path d="M103.845 831.028C118.188 835.894 135.81 839.296 154.019 842.664C155.945 843.016 157.707 841.429 157.723 839.331C157.756 836.088 156.81 832.914 154.982 830.358C150.348 823.906 141.145 814.068 136.495 809.202C134.684 807.298 133.607 804.742 133.477 802.01C133.215 796.492 132.938 790.885 133.02 785.261" stroke="#251E18" stroke-width="0.75" stroke-linecap="round" stroke-linejoin="round"/>
<path d="M103.698 830.746C103.878 831.821 105.395 785.261 105.395 785.261" stroke="#251E18" stroke-width="0.75" stroke-linecap="round" stroke-linejoin="round"/>
<path d="M104.987 794.905C114.418 795.874 123.833 796.862 133.264 797.831" stroke="#251E18" stroke-width="0.75" stroke-linecap="round" stroke-linejoin="round"/>
<path d="M103.976 824.699L157.201 838.133L157.266 838.856C157.462 841.112 155.635 842.946 153.562 842.558L126.33 837.41L103.682 830.746L103.959 824.699H103.976Z" fill="#251E18"/>
<path d="M104.987 783.922L133.541 785.173L104.791 790.18" fill="#251E18"/>
<path d="M138.437 820.627C140.46 819.727 142.483 818.811 144.507 817.912" stroke="#251E18" stroke-width="0.75" stroke-linecap="round" stroke-linejoin="round"/>
<path d="M133.052 815.567L139.285 812.57" stroke="#251E18" stroke-width="0.75" stroke-linecap="round" stroke-linejoin="round"/>
<path d="M128.124 809.573L134.977 807.404" stroke="#251E18" stroke-width="0.75" stroke-linecap="round" stroke-linejoin="round"/>
<path d="M143.756 834.589C144.751 830.728 147.509 827.467 150.968 826.021" stroke="#251E18" stroke-width="0.75" stroke-linecap="round" stroke-linejoin="round"/>
<path d="M93.565 784.521C110.975 783.992 164.266 787.465 164.266 787.465C165.228 792.331 152.991 721.707 147.41 679.924C145.697 667.072 137.62 657.588 124.763 654.185C115.625 651.77 93.0102 647.01 79.1899 642.232C77.2645 640.205 73.218 628.411 72.7611 625.555C72.7611 625.555 9.76207 625.555 9.63154 625.555C9.63154 625.555 3.00693 638.283 5.27496 651.453C8.08145 667.637 21.1675 674.001 34.1393 678.92C51.7288 685.584 69.9709 690.449 88.0826 695.139C91.2643 695.967 94.4461 696.778 97.6442 697.554C98.2805 714.919 94.2177 753.793 93.565 784.521Z" fill="#7288EA"/>
<path d="M93.304 784.221C110.714 783.692 164.005 787.165 164.005 787.165C164.282 787.465 152.73 721.407 147.149 679.625C145.436 666.773 137.359 657.288 124.502 653.885C115.364 651.47 92.7492 646.71 78.9289 641.933C77.0035 639.905 72.957 628.111 72.5001 625.255C72.5001 625.255 9.50109 625.255 9.37055 625.255C9.37055 625.255 2.74595 637.984 5.01398 651.153C7.82046 667.337 20.9065 673.701 33.8783 678.62C51.4678 685.284 69.71 690.15 87.8216 694.839C91.0033 695.668 94.1851 696.479 97.3832 697.254C98.0196 714.62 93.9567 753.493 93.304 784.221Z" stroke="#251E18" stroke-width="0.75" stroke-linecap="round" stroke-linejoin="round"/>
<path d="M7.08606 632.113C7.08606 632.113 72.761 625.537 72.3694 625.255H9.53357" fill="#251E18"/>
<path d="M33.1931 629.698C32.1488 638.407 34.3842 647.539 39.2629 654.555C48.6614 668.06 108.283 677.474 115.038 680.788C120.586 714.461 112.803 745.507 116.131 779.514" stroke="#FFEDDC" stroke-width="0.75" stroke-linecap="round" stroke-linejoin="round"/>
<path d="M35.2326 646.393C40.9108 643.237 45.1695 637.261 46.5728 630.526" stroke="#FFEDDC" stroke-width="0.75" stroke-linecap="round" stroke-linejoin="round"/>
<path d="M96.0287 767.526C116.947 766.451 137.898 766.116 158.832 766.556" stroke="#FFEDDC" stroke-width="0.75" stroke-linecap="round" stroke-linejoin="round"/>
<path d="M126.15 657.024C129.609 667.848 137.294 677.033 146.904 681.828" stroke="#251E18" stroke-width="0.75" stroke-linecap="round" stroke-linejoin="round"/>
<path d="M70.1829 499.485C68.6328 510.063 61.8777 517.679 49.6401 515.599C39.8501 513.941 33.1765 503.981 34.7266 493.403C36.2767 482.825 45.4793 475.615 55.2694 477.289C65.0595 478.964 71.733 488.907 70.1829 499.485Z" fill="#ED7572"/>
<path d="M68.1758 494.778C69.8075 495.818 69.938 495.995 71.5697 497.035C72.3529 497.546 73.234 498.181 73.2993 499.168C73.3646 500.085 72.6466 500.896 71.8308 501.178C71.015 501.46 70.1339 501.336 69.2854 501.213" fill="#ED7572"/>
<path d="M71.5699 497.035C71.0477 496.7 70.6888 496.47 70.3787 496.259C70.2972 486.968 64.0478 478.806 55.2694 477.307C45.4793 475.632 36.2767 482.843 34.7266 493.421C33.1765 503.998 39.8501 513.941 49.6401 515.616C61.1761 517.573 67.817 510.927 69.8566 501.301C70.5256 501.389 71.2109 501.407 71.8472 501.195C72.6631 500.913 73.381 500.102 73.3157 499.185C73.2505 498.198 72.3694 497.546 71.5862 497.052L71.5699 497.035Z" stroke="#251E18" stroke-width="0.75" stroke-linecap="round" stroke-linejoin="round"/>
<path d="M46.0505 497.898C42.6892 500.102 39.0669 501.812 35.363 502.87C34.2371 498.498 34.1066 493.526 35.6893 489.313C37.2557 485.099 40.1275 481.468 43.7498 479.141C46.3605 477.466 49.9502 476.778 52.9851 476.778C56.1832 476.778 59.2834 477.942 61.7146 479.564L60.605 481.679C58.2717 486.369 54.9757 490.582 51.0597 494.055L50.8639 494.232C49.7381 492.98 47.5842 492.751 46.4257 494.073C45.5446 495.078 45.5283 496.664 46.1157 497.881L46.0505 497.916V497.898Z" fill="#251E18"/>
<path d="M56.9498 487.409C57.1619 489.084 58.8099 490.371 60.3437 490.106C61.8774 489.842 63.0522 488.044 62.7585 486.369C63.248 487.62 64.4881 488.414 65.6466 488.96C66.8051 489.507 68.2573 489.383 69.22 488.502C70.4274 487.391 70.5906 485.346 69.9216 483.777C69.2526 482.226 67.931 481.115 66.544 480.304C64.9124 479.37 62.9217 478.788 61.2574 479.634" fill="#251E18"/>
<path d="M54.1761 495.219C53.7681 497.951 51.4022 499.802 48.8894 499.362C46.3603 498.921 44.6471 496.365 45.055 493.65C45.4629 490.917 47.8288 489.066 50.3416 489.507C52.8707 489.947 54.584 492.504 54.1761 495.219Z" fill="#ED7572"/>
<path d="M39.9969 506.572L48.71 495.042L53.034 508.811L39.9969 506.572Z" fill="#FFEEE9"/>
<path d="M44.7776 479.334C44.7776 479.334 32.7522 486.157 23.3211 481.591C13.89 477.007 12.1441 470.819 14.5753 465.002C16.9902 459.184 22.6684 455.922 32.0995 460.506C41.5306 465.09 44.7939 479.334 44.7939 479.334H44.7776Z" fill="#251E18"/>
<path d="M63.6072 502.835C64.4556 504.404 65.9731 505.515 67.6211 505.779" stroke="#251E18" stroke-width="0.75" stroke-linecap="round" stroke-linejoin="round"/>
<path d="M67.6538 495.166C67.5886 495.571 67.2459 495.836 66.8706 495.783C66.4954 495.712 66.2506 495.342 66.2996 494.937C66.3485 494.531 66.7075 494.267 67.0827 494.32C67.458 494.39 67.7028 494.761 67.6538 495.166Z" fill="#251E18"/>
<path d="M61.2087 498.621C62.5604 498.621 63.6562 497.437 63.6562 495.977C63.6562 494.516 62.5604 493.332 61.2087 493.332C59.857 493.332 58.7612 494.516 58.7612 495.977C58.7612 497.437 59.857 498.621 61.2087 498.621Z" fill="#E05151"/>
<path d="M118.415 565.438C119.231 565.42 122.788 565.014 123.604 564.979C135.58 564.538 147.524 563.622 159.37 561.682C164.706 560.819 170.188 559.726 175.459 561.013L176.895 561.348C188.137 564.186 197.959 574.676 201.174 586.646C201.174 586.822 201.174 587.016 201.141 587.193C200.799 589.238 198.482 590.137 196.85 589.044C193.733 586.981 189.181 583.508 189.181 583.508C191.188 587.563 193.195 591.706 195.316 595.725H184.286L184.025 595.514C183.96 596.113 183.878 596.713 183.797 597.312C183.519 599.41 181.3 600.538 179.685 599.322C178.135 598.158 177.71 595.99 177.368 594.015C176.748 590.313 176.111 586.593 175.491 582.891L175.312 582.503C172.032 590.912 162.471 594.527 154.067 596.801C145.126 599.216 135.939 601.349 127.079 603.077C125.986 603.288 121.842 604.046 120.732 604.258L118.399 565.438H118.415Z" fill="#ED7572"/>
<path d="M161.834 567.87C167.577 567.624 174.137 567.148 179.048 568.593C181.267 569.245 183.356 571.167 184.27 573.441C185.183 575.716 185.232 578.272 185.2 580.758C185.118 586.434 184.694 592.093 183.943 597.7C183.682 599.621 181.169 600.238 179.75 599.057C178.33 597.876 177.906 595.778 177.58 593.874C176.96 590.172 176.389 585.059 175.768 581.339" stroke="#251E18" stroke-width="0.75" stroke-linecap="round" stroke-linejoin="round"/>
<path d="M184.841 574.799C184.841 574.799 195.186 595.584 195.447 595.743" stroke="#251E18" stroke-width="0.75" stroke-linecap="round" stroke-linejoin="round"/>
<path d="M175.768 581.339C173.027 590.718 162.78 594.667 153.937 597.065C144.995 599.48 121.711 603.923 120.602 604.117" stroke="#251E18" stroke-width="0.75" stroke-linecap="round" stroke-linejoin="round"/>
<path d="M128.548 602.46C128.548 602.46 121.581 578.025 118.872 566.107C119.313 577.796 120.226 591.758 120.504 603.447" fill="#251E18"/>
<path d="M118.285 565.296C119.101 565.261 122.658 564.873 123.473 564.838C135.45 564.397 147.394 563.481 159.24 561.541C164.575 560.678 170.058 559.584 175.328 560.871L176.764 561.206C188.006 564.045 197.829 574.534 201.043 586.505C201.043 586.681 201.043 586.875 201.011 587.051C200.668 589.096 198.351 589.996 196.719 588.903C193.603 586.84 189.051 583.367 189.051 583.367" stroke="#251E18" stroke-width="0.75" stroke-linecap="round" stroke-linejoin="round"/>
<path d="M76.922 604.558C77.0688 609.406 77.3625 615.471 77.5746 620.883V620.936C77.6725 623.474 75.7961 625.572 73.4628 625.572H8.78317C5.94405 625.572 3.83919 622.716 4.47554 619.737V619.684C8.16313 602.213 11.8833 582.433 15.0977 564.891C17.8226 550.012 23.2072 536.86 36.9785 530.654C54.4212 522.792 69.6284 532.946 80.4138 547.632C85.3577 554.366 89.5022 559.779 95.0499 565.931C103.012 565.878 110.176 565.402 118.138 565.191L118.513 565.314C120.015 578.184 120.781 591.159 120.847 604.135L120.961 604.91C109.817 606.779 98.5743 607.855 87.0057 607.713C83.8892 607.678 79.9079 606.162 76.9546 604.575" fill="#FFAA33"/>
<path d="M118.122 565.208L111.399 565.49C113.292 578.713 113.504 596.289 113.129 606.091C115.658 605.774 117.958 605.422 120.537 604.998C119.949 589.784 119.084 573.812 118.138 565.208H118.122Z" fill="#FFC78A"/>
<path d="M120.732 604.522C109.588 606.391 98.3455 607.467 86.7769 607.326C83.2851 607.29 79.7934 606.374 76.6605 604.699C75.551 604.117 74.4904 603.429 73.4788 602.654C70.8191 600.609 68.5837 597.982 66.3647 595.373L42.2974 566.989" stroke="#251E18" stroke-width="0.75" stroke-linecap="round" stroke-linejoin="round"/>
<path d="M77.3623 619.525C77.3623 619.931 77.395 620.389 77.4113 620.9C77.4929 623.422 75.6164 625.519 73.2831 625.519H8.57082C5.73171 625.519 3.62685 622.663 4.2632 619.684V619.631" fill="#FFC78A"/>
<path d="M76.6611 604.699C76.8079 609.547 77.2974 615.312 77.5095 620.724V620.777C77.6074 623.316 75.731 625.414 73.3977 625.414H8.71804C5.87892 625.414 3.77406 622.558 4.41042 619.578V619.525C8.09801 602.054 11.8182 582.274 15.0326 564.733C17.7575 549.853 23.1421 536.701 36.9134 530.496C54.356 522.633 69.5633 532.788 80.3487 547.473C85.2926 554.208 89.4371 559.62 94.9848 565.773C102.947 565.72 110.11 565.244 118.073 565.032" stroke="#251E18" stroke-width="0.75" stroke-linecap="round" stroke-linejoin="round"/>
<path d="M43.1951 574.129C42.6729 574.217 56.4443 584.037 56.4443 584.037" stroke="#251E18" stroke-width="0.75" stroke-linecap="round" stroke-linejoin="round"/>
<path d="M57.407 539.751C57.407 541.373 56.1833 542.695 54.6821 542.695C53.181 542.695 51.9572 541.373 51.9572 539.751C51.9572 538.129 53.181 536.807 54.6821 536.807C56.1833 536.807 57.407 538.129 57.407 539.751Z" stroke="#FFCF9F" stroke-width="0.75" stroke-miterlimit="10"/>
<path d="M27.4819 560.907C27.4819 562.529 26.2582 563.851 24.757 563.851C23.2559 563.851 22.0321 562.529 22.0321 560.907C22.0321 559.285 23.2559 557.963 24.757 557.963C26.2582 557.963 27.4819 559.285 27.4819 560.907Z" stroke="#FFCF9F" stroke-width="0.75" stroke-miterlimit="10"/>
<path d="M76.8402 560.466C76.8402 562.088 75.6164 563.41 74.1153 563.41C72.6141 563.41 71.3904 562.088 71.3904 560.466C71.3904 558.844 72.6141 557.522 74.1153 557.522C75.6164 557.522 76.8402 558.844 76.8402 560.466Z" stroke="#FFCF9F" stroke-width="0.75" stroke-miterlimit="10"/>
<path d="M78.3412 596.907C78.3412 598.528 77.1175 599.851 75.6163 599.851C74.1152 599.851 72.8914 598.528 72.8914 596.907C72.8914 595.285 74.1152 593.962 75.6163 593.962C77.1175 593.962 78.3412 595.285 78.3412 596.907Z" stroke="#FFCF9F" stroke-width="0.75" stroke-miterlimit="10"/>
<path d="M98.1991 575.01C98.1991 576.632 96.9753 577.955 95.4742 577.955C93.973 577.955 92.7493 576.632 92.7493 575.01C92.7493 573.389 93.973 572.066 95.4742 572.066C96.9753 572.066 98.1991 573.389 98.1991 575.01Z" stroke="#FFCF9F" stroke-width="0.75" stroke-miterlimit="10"/>
<path d="M77.0196 575.804C77.0196 576.985 76.1222 577.955 75.029 577.955C73.9358 577.955 73.0383 576.985 73.0383 575.804C73.0383 574.623 73.9358 573.653 75.029 573.653C76.1222 573.653 77.0196 574.623 77.0196 575.804Z" fill="#FFC78A"/>
<path d="M21.3307 591.089C21.3307 592.27 20.4333 593.24 19.3401 593.24C18.2469 593.24 17.3494 592.27 17.3494 591.089C17.3494 589.908 18.2469 588.938 19.3401 588.938C20.4333 588.938 21.3307 589.908 21.3307 591.089Z" fill="#FFC78A"/>
<path d="M38.7243 584.619C38.7243 585.8 37.8269 586.769 36.7337 586.769C35.6405 586.769 34.743 585.8 34.743 584.619C34.743 583.437 35.6405 582.468 36.7337 582.468C37.8269 582.468 38.7243 583.437 38.7243 584.619Z" fill="#FFC78A"/>
<path d="M59.3974 606.955C59.3974 608.137 58.5 609.106 57.4068 609.106C56.3135 609.106 55.4161 608.137 55.4161 606.955C55.4161 605.774 56.3135 604.805 57.4068 604.805C58.5 604.805 59.3974 605.774 59.3974 606.955Z" fill="#FFC78A"/>
<path d="M72.4509 611.645C72.4509 612.826 71.5535 613.796 70.4602 613.796C69.367 613.796 68.4696 612.826 68.4696 611.645C68.4696 610.464 69.367 609.494 70.4602 609.494C71.5535 609.494 72.4509 610.464 72.4509 611.645Z" fill="#FFC78A"/>
<path d="M18.0675 611.645C18.0675 612.826 17.1701 613.796 16.0768 613.796C14.9836 613.796 14.0862 612.826 14.0862 611.645C14.0862 610.464 14.9836 609.494 16.0768 609.494C17.1701 609.494 18.0675 610.464 18.0675 611.645Z" fill="#FFC78A"/>
<path d="M64.1949 547.191C65.2943 547.191 66.1856 546.228 66.1856 545.04C66.1856 543.852 65.2943 542.889 64.1949 542.889C63.0955 542.889 62.2043 543.852 62.2043 545.04C62.2043 546.228 63.0955 547.191 64.1949 547.191Z" fill="#FFC78A"/>
<path d="M34.0088 544.547C35.1082 544.547 35.9995 543.584 35.9995 542.396C35.9995 541.208 35.1082 540.245 34.0088 540.245C32.9094 540.245 32.0182 541.208 32.0182 542.396C32.0182 543.584 32.9094 544.547 34.0088 544.547Z" fill="#FFC78A"/>
<path d="M95.6047 598.317C96.7041 598.317 97.5953 597.354 97.5953 596.166C97.5953 594.978 96.7041 594.015 95.6047 594.015C94.5053 594.015 93.6141 594.978 93.6141 596.166C93.6141 597.354 94.5053 598.317 95.6047 598.317Z" fill="#FFC78A"/>
<path d="M109.066 594.403C109.066 596.025 107.842 597.347 106.341 597.347C104.84 597.347 103.616 596.025 103.616 594.403C103.616 592.781 104.84 591.459 106.341 591.459C107.842 591.459 109.066 592.781 109.066 594.403Z" stroke="#FFCF9F" stroke-width="0.75" stroke-miterlimit="10"/>
<path d="M54.1436 562.088C54.1436 563.71 52.9198 565.032 51.4187 565.032C49.9175 565.032 48.6938 563.71 48.6938 562.088C48.6938 560.466 49.9175 559.144 51.4187 559.144C52.9198 559.144 54.1436 560.466 54.1436 562.088Z" stroke="#FFCF9F" stroke-width="0.75" stroke-miterlimit="10"/>
<path d="M54.1436 589.114C54.1436 590.736 52.9198 592.058 51.4187 592.058C49.9175 592.058 48.6938 590.736 48.6938 589.114C48.6938 587.492 49.9175 586.17 51.4187 586.17C52.9198 586.17 54.1436 587.492 54.1436 589.114Z" stroke="#FFCF9F" stroke-width="0.75" stroke-miterlimit="10"/>
<path d="M39.4586 606.162C39.4586 607.784 38.2349 609.106 36.7337 609.106C35.2326 609.106 34.0089 607.784 34.0089 606.162C34.0089 604.54 35.2326 603.218 36.7337 603.218C38.2349 603.218 39.4586 604.54 39.4586 606.162Z" stroke="#FFCF9F" stroke-width="0.75" stroke-miterlimit="10"/>
<path d="M120.602 604.099C120.553 591.124 119.77 578.149 118.268 565.279" stroke="#251E18" stroke-width="0.75" stroke-linecap="round" stroke-linejoin="round"/>
<path d="M325.266 540.385C332.87 538.569 344.83 535.995 352.434 534.179" stroke="#BC465D" stroke-linecap="round" stroke-linejoin="round"/>
<path d="M319.751 530.459L334.24 519" stroke="#BC465D" stroke-linecap="round" stroke-linejoin="round"/>
<path d="M322.867 551.862C329.329 556.657 330.226 557.838 336.687 562.633" stroke="#BC465D" stroke-linecap="round" stroke-linejoin="round"/>
<path d="M258.155 543.681L308.198 543.981L281.553 604.803L234.838 603.111L258.155 543.681Z" fill="black"/>
<path d="M281.716 609.528L278.991 613.653C277.914 615.293 276.169 616.263 274.309 616.263H208.715L174.76 616.227C171.578 616.227 168.984 613.424 169 609.969L281.733 609.528" fill="#998876"/>
<path d="M281.716 609.528L278.991 613.653C277.914 615.293 276.169 616.263 274.309 616.263H208.715L174.76 616.227C171.578 616.227 168.984 613.424 169 609.969L281.733 609.528" stroke="#251E18" stroke-width="0.75" stroke-linecap="round" stroke-linejoin="round"/>
<path d="M281.847 609.352L279.644 612.772C278.241 614.958 275.924 616.263 273.444 616.263H208.829L173.438 616.227" stroke="#251E18" stroke-width="0.75" stroke-linecap="round" stroke-linejoin="round"/>
<path d="M210.673 616.263V610.533" stroke="#251E18" stroke-width="0.75" stroke-linecap="round" stroke-linejoin="round"/>
<path d="M282.222 609.51L228.785 610.092L232.864 602.529H283.854L282.222 609.51Z" fill="#B2A18C"/>
<path d="M277.197 609.511L307.823 540.279L311.494 540.385L311.772 541.108C311.772 541.108 290.74 584.459 282.222 610.392" fill="#B2A18C"/>
<path d="M233.174 609.352C233.174 609.352 253.162 560.535 260.504 540.49H256.441C248.609 562.669 230.09 607.8 230.09 607.8" fill="#B2A18C"/>
<path d="M254.892 544.898H310.059C310.059 544.898 311.478 540.385 311.592 540.825C311.495 540.385 256.67 540.861 256.67 540.861C256.67 540.861 255.969 542.518 254.892 544.898Z" fill="#B2A18C"/>
<path d="M281.325 610.621H283.935C285.208 610.621 286.367 609.828 286.905 608.594L314.741 546.22C315.802 543.858 314.203 541.108 311.772 541.108L281.847 609.352" fill="#998876"/>
<path d="M281.325 610.621H283.935C285.208 610.621 286.367 609.828 286.905 608.594L314.741 546.22C315.802 543.858 314.203 541.108 311.772 541.108L281.847 609.352" stroke="#251E18" stroke-width="0.75" stroke-linecap="round" stroke-linejoin="round"/>
<path d="M236.127 592.163C242.524 575.239 250.029 557.415 256.426 540.473H311.185" stroke="#251E18" stroke-width="0.75" stroke-linecap="round" stroke-linejoin="round"/>
<path d="M222.062 609.793H280.949" stroke="#251E18" stroke-width="0.75" stroke-linecap="round" stroke-linejoin="round"/>
<path d="M265.008 569.35C266.623 572.753 268.222 576.155 269.838 579.54" stroke="#E2E0DB" stroke-width="0.66" stroke-linecap="round" stroke-linejoin="round"/>
<path d="M267.031 561.681C269.74 567.076 272.448 572.453 275.157 577.848" stroke="#E2E0DB" stroke-width="0.66" stroke-linecap="round" stroke-linejoin="round"/>
</svg>
