<svg width="1440" height="900" viewBox="0 0 1440 900" fill="none" xmlns="http://www.w3.org/2000/svg">
<g opacity="0.1">
<path d="M773.163 855.759C736.135 823.54 730.5 769.162 760.628 734.537C790.755 699.913 845.378 697.966 882.418 730.195C919.459 762.425 925.081 816.793 894.954 851.417C864.826 886.041 810.203 887.989 773.163 855.759ZM864.202 751.13C839.517 729.651 803.101 730.95 783.023 754.025C762.945 777.1 766.694 813.345 791.379 834.824C816.064 856.303 852.48 855.005 872.558 831.93C892.636 808.855 888.888 772.609 864.202 751.13Z" fill="#212C60"/>
<path d="M1193.04 569.233C1225.34 597.335 1272.82 595.642 1299.09 565.453C1325.36 535.263 1320.47 488.008 1288.17 459.906C1255.87 431.804 1208.4 433.496 1182.13 463.686C1155.86 493.876 1160.75 541.131 1193.04 569.233Z" fill="#212C60"/>
<path d="M1145.42 489.417C1163.44 505.094 1189.92 504.15 1204.58 487.307C1219.23 470.465 1216.51 444.103 1198.49 428.426C1180.47 412.749 1153.99 413.693 1139.33 430.535C1124.68 447.377 1127.4 473.739 1145.42 489.417Z" stroke="#212C60" stroke-linecap="round" stroke-linejoin="round"/>
<path d="M1200.16 495.726C1204.28 499.313 1210.35 499.097 1213.7 495.243C1217.05 491.389 1216.43 485.357 1212.31 481.769C1208.18 478.182 1202.12 478.398 1198.77 482.252C1195.42 486.106 1196.04 492.138 1200.16 495.726Z" fill="#FFF1EB"/>
</g>
<g opacity="0.1">
<path d="M121.163 529.759C84.1349 497.54 78.5004 443.162 108.627 408.537C138.755 373.913 193.378 371.966 230.418 404.195C267.459 436.425 273.081 490.793 242.954 525.417C212.826 560.041 158.203 561.989 121.163 529.759ZM212.202 425.13C187.517 403.651 151.101 404.95 131.023 428.025C110.945 451.1 114.694 487.345 139.379 508.824C164.064 530.303 200.48 529.005 220.558 505.93C240.636 482.855 236.887 446.609 212.202 425.13Z" fill="#212C60"/>
<path d="M541.044 243.233C573.341 271.335 620.818 269.642 647.086 239.453C673.355 209.263 668.468 162.008 636.172 133.906C603.875 105.804 556.398 107.496 530.13 137.686C503.861 167.876 508.747 215.131 541.044 243.233Z" fill="#212C60"/>
<path d="M493.421 163.417C511.439 179.094 537.924 178.15 552.579 161.307C567.234 144.465 564.508 118.103 546.49 102.426C528.473 86.7485 501.987 87.6928 487.332 104.535C472.678 121.377 475.404 147.739 493.421 163.417Z" stroke="#212C60" stroke-linecap="round" stroke-linejoin="round"/>
<path d="M548.162 169.726C552.285 173.313 558.346 173.097 561.699 169.243C565.053 165.389 564.429 159.357 560.306 155.769C556.183 152.182 550.122 152.398 546.769 156.252C543.415 160.106 544.039 166.138 548.162 169.726Z" fill="#FFF1EB"/>
</g>
<path d="M439.276 121.659C439.276 121.659 439.202 124.911 439.105 129.818C439.056 132.264 439.007 135.128 438.959 138.178C438.898 141.243 438.849 144.51 438.8 147.776C438.764 151.042 438.727 154.309 438.691 157.359C438.666 160.41 438.642 163.273 438.617 165.719C438.605 170.597 438.581 173.849 438.581 173.849L432.72 175.806C432.72 175.806 431.562 173.576 429.807 170.238C428.93 168.583 427.894 166.626 426.785 164.539C425.688 162.467 424.494 160.237 423.3 158.021C422.13 155.805 420.924 153.575 419.815 151.503C418.694 149.431 417.646 147.488 416.756 145.833C414.953 142.509 413.758 140.308 413.758 140.308C413.758 140.308 413.734 142.941 413.71 146.884C413.71 148.855 413.71 151.172 413.71 153.632C413.698 156.107 413.71 158.741 413.685 161.374C413.71 163.993 413.734 166.64 413.734 169.101C413.746 171.561 413.758 173.878 413.783 175.835C413.807 179.792 413.832 182.411 413.832 182.411L408.08 184.584C408.08 184.584 406.605 181.85 404.363 177.749C403.23 175.706 401.926 173.317 400.513 170.741C399.099 168.194 397.6 165.475 396.077 162.741C394.566 160.007 393.043 157.287 391.617 154.74C390.167 152.193 388.851 149.819 387.705 147.79C385.39 143.718 383.867 141.013 383.867 141.013L389.582 138.826C389.582 138.826 390.837 141.142 392.701 144.625C393.628 146.38 394.712 148.409 395.87 150.582C397.04 152.769 398.258 155.1 399.489 157.431C400.707 159.762 401.938 162.093 403.072 164.28C404.241 166.468 405.302 168.511 406.215 170.266C408.031 173.763 409.25 176.108 409.25 176.108C409.25 176.108 409.189 173.346 409.104 169.202C409.055 167.13 409.006 164.726 408.957 162.136C408.921 159.532 408.872 156.784 408.823 154.021C408.787 151.244 408.762 148.495 408.726 145.891C408.701 143.301 408.677 140.883 408.653 138.811C408.616 134.667 408.604 131.89 408.604 131.89L414.685 129.76C414.685 129.76 415.891 132.12 417.731 135.631C418.645 137.372 419.705 139.43 420.838 141.617C421.984 143.819 423.19 146.164 424.397 148.51C425.603 150.855 426.809 153.201 427.943 155.402C429.064 157.604 430.1 159.661 431.001 161.417C432.793 164.957 433.987 167.317 433.987 167.317C433.987 167.317 433.902 164.583 433.841 160.482C433.804 158.424 433.755 156.035 433.731 153.474C433.682 150.898 433.646 148.164 433.597 145.43C433.573 142.696 433.536 139.962 433.512 137.387C433.475 134.84 433.463 132.437 433.451 130.379C433.414 126.264 433.402 123.53 433.402 123.53L439.276 121.659ZM451.851 123.285C451.851 123.285 452.729 127.343 453.594 131.401C454.483 135.459 455.349 139.531 455.349 139.531C455.349 139.531 459.114 138.408 462.879 137.286C466.645 136.192 470.398 135.128 470.398 135.128L471.483 140.365C471.483 140.365 467.729 141.43 463.988 142.524C460.235 143.632 456.482 144.74 456.482 144.74C456.482 144.74 457.396 148.927 458.285 153.114C459.187 157.287 460.113 161.475 460.113 161.475C460.113 161.475 464.244 160.251 468.351 159.028C472.506 157.834 476.649 156.668 476.649 156.668L477.71 161.921C477.71 161.921 476.333 162.295 474.31 162.885C472.262 163.46 469.533 164.252 466.828 165.043C464.11 165.849 461.393 166.669 459.358 167.288C457.335 167.907 455.982 168.309 455.982 168.309C455.982 168.309 455.3 165.273 454.301 160.712C453.801 158.438 453.204 155.791 452.582 152.927C451.949 150.093 451.279 147.056 450.608 144.02C449.938 140.97 449.268 137.934 448.634 135.099C448.013 132.235 447.416 129.588 446.916 127.314C445.917 122.753 445.234 119.717 445.234 119.717C445.234 119.717 446.648 119.285 448.756 118.638C450.876 117.99 453.703 117.141 456.518 116.306C459.346 115.486 462.185 114.666 464.305 114.047C466.425 113.443 467.851 113.054 467.851 113.054L468.911 118.292C468.911 118.292 464.622 119.515 460.357 120.753C456.092 122.019 451.851 123.285 451.851 123.285ZM490.029 153.086C490.029 153.086 493.588 152.136 497.182 151.215C500.753 150.308 504.335 149.416 504.335 149.416L505.249 154.625C505.249 154.625 504.031 154.927 502.203 155.388C500.363 155.848 497.914 156.481 495.476 157.115C493.039 157.748 490.59 158.395 488.762 158.884C486.934 159.374 485.716 159.69 485.716 159.69C485.716 159.69 485.131 156.64 484.229 152.064C483.79 149.776 483.266 147.1 482.681 144.236C482.133 141.373 481.56 138.308 480.963 135.257C480.366 132.207 479.745 129.142 479.221 126.278C478.66 123.415 478.112 120.753 477.697 118.45C476.796 113.875 476.211 110.81 476.211 110.81L481.706 109.356C481.706 109.356 482.243 112.076 483.01 116.177C483.4 118.22 483.863 120.623 484.351 123.185C484.838 125.746 485.35 128.48 485.874 131.214C486.398 133.948 486.91 136.667 487.409 139.243C487.885 141.79 488.348 144.193 488.738 146.251C489.518 150.352 490.029 153.086 490.029 153.086ZM504.628 129.142C504.214 126.739 504.043 124.408 504.128 122.149C504.226 119.875 504.555 117.702 505.152 115.558C505.737 113.4 506.553 111.443 507.553 109.63C508.564 107.831 509.783 106.205 511.208 104.737C512.646 103.299 514.218 102.09 515.936 101.14C517.655 100.19 519.495 99.5141 521.481 99.0681C523.796 98.5788 526.014 98.4206 528.146 98.6364C530.279 98.8666 532.302 99.4422 534.227 100.378C536.14 101.327 537.859 102.608 539.394 104.191C540.905 105.788 542.233 107.702 543.367 109.946L536.762 111.256C535.153 108.522 533.106 106.565 530.645 105.443C528.207 104.277 525.441 104.047 522.37 104.737C519.409 105.371 516.862 106.781 514.791 108.896C512.707 111.054 511.245 113.76 510.428 117.026C509.588 120.249 509.502 123.846 510.185 127.804C510.831 131.703 512.073 134.969 513.889 137.646C515.668 140.236 517.837 142.092 520.396 143.171C522.919 144.251 525.636 144.495 528.5 143.848C531.498 143.2 533.935 141.862 535.811 139.862C537.749 137.804 539.065 135.185 539.796 131.962L546.279 130.653C545.84 133.185 545.133 135.473 544.171 137.545C543.22 139.632 541.99 141.488 540.515 143.143C539.028 144.754 537.359 146.092 535.495 147.128C533.654 148.179 531.607 148.941 529.377 149.431C527.488 149.862 525.636 149.992 523.808 149.848C521.993 149.718 520.214 149.301 518.483 148.596C516.741 147.877 515.144 146.898 513.67 145.704C512.183 144.495 510.818 143.056 509.6 141.358C508.357 139.689 507.321 137.833 506.492 135.775C505.676 133.746 505.054 131.53 504.628 129.142ZM575.013 140.754C573.112 141.07 571.248 141.114 569.444 140.869C567.641 140.639 565.874 140.135 564.143 139.344C562.437 138.524 560.841 137.488 559.391 136.207C557.941 134.941 556.625 133.43 555.43 131.674C554.248 129.904 553.31 127.976 552.542 125.875C551.799 123.789 551.239 121.53 550.934 119.127C550.593 116.695 550.52 114.364 550.69 112.119C550.861 109.86 551.275 107.702 551.945 105.601C552.652 103.471 553.542 101.543 554.626 99.8163C555.735 98.0752 557.039 96.5068 558.538 95.1542C560.037 93.7728 561.67 92.6504 563.4 91.7871C565.143 90.9381 567.019 90.3482 569.005 90.0172C571.016 89.6719 572.978 89.6431 574.867 89.8877C576.756 90.1611 578.559 90.7223 580.326 91.5569C582.093 92.3771 583.702 93.4419 585.152 94.7657C586.59 96.0751 587.881 97.6004 589.027 99.399C590.172 101.198 591.074 103.155 591.756 105.284C592.463 107.399 592.926 109.687 593.17 112.148C593.414 114.594 593.426 116.954 593.182 119.213C592.938 121.458 592.475 123.616 591.744 125.688C591.025 127.76 590.123 129.631 589.027 131.315C587.942 133.012 586.663 134.538 585.188 135.862C583.738 137.185 582.166 138.25 580.46 139.056C578.766 139.876 576.951 140.437 575.013 140.754ZM574.355 135.128C577.255 134.638 579.741 133.43 581.874 131.458C584.043 129.458 585.603 126.883 586.614 123.688C587.662 120.479 587.967 116.911 587.552 112.968C587.114 108.954 586.078 105.572 584.372 102.838C582.69 100.061 580.606 98.0177 578.047 96.7658C575.488 95.5139 572.71 95.1398 569.663 95.6434C566.641 96.1614 564.058 97.3989 561.901 99.4278C559.744 101.457 558.172 104.09 557.173 107.328C556.21 110.522 556.003 114.105 556.527 118.076C557.039 122.019 558.148 125.343 559.842 128.106C561.609 130.854 563.717 132.825 566.215 134.034C568.75 135.243 571.467 135.617 574.355 135.128ZM641.852 81.8729C641.852 81.8729 642.047 84.9809 642.327 89.6287C642.461 91.9598 642.632 94.6793 642.79 97.586C642.973 100.493 643.168 103.601 643.363 106.709C643.546 109.817 643.741 112.911 643.912 115.832C644.094 118.724 644.253 121.458 644.399 123.775C644.667 128.422 644.874 131.545 644.874 131.545L639.452 132.005C639.452 132.005 639.293 129.689 639.062 126.221C638.952 124.48 638.83 122.465 638.684 120.292C638.55 118.134 638.391 115.817 638.233 113.501C638.087 111.184 637.94 108.882 637.782 106.709C637.66 104.536 637.526 102.522 637.416 100.78C637.185 97.3126 637.039 94.9959 637.039 94.9959C637.039 94.9959 636.308 97.3845 635.211 100.982C634.675 102.781 634.041 104.881 633.371 107.126C632.701 109.371 631.994 111.759 631.275 114.148C630.592 116.565 629.886 118.954 629.228 121.199C628.582 123.458 627.972 125.544 627.461 127.357C626.425 130.955 625.755 133.358 625.755 133.358L621.953 133.775C621.953 133.775 620.905 131.559 619.333 128.235C618.541 126.566 617.627 124.623 616.628 122.566C615.628 120.479 614.568 118.278 613.508 116.062C612.436 113.846 611.363 111.644 610.352 109.572C609.34 107.5 608.402 105.586 607.586 103.917C605.953 100.622 604.856 98.4206 604.856 98.4206C604.856 98.4206 605.063 100.737 605.38 104.191C605.538 105.932 605.721 107.961 605.916 110.119C606.111 112.292 606.331 114.594 606.538 116.911C606.745 119.227 606.952 121.53 607.159 123.703C607.366 125.861 607.537 127.89 607.695 129.631C608 133.099 608.232 135.401 608.232 135.401L602.809 136.092C602.809 136.092 602.529 133.012 602.09 128.379C601.858 126.062 601.615 123.343 601.334 120.451C601.054 117.544 600.749 114.465 600.457 111.371C600.177 108.277 599.884 105.184 599.604 102.277C599.324 99.3846 599.056 96.6795 598.848 94.3628C598.41 89.7294 598.105 86.6357 598.105 86.6357L604.161 85.8587C604.161 85.8587 605.38 88.2761 607.196 91.931C608.11 93.7584 609.158 95.9024 610.291 98.1759C611.412 100.464 612.606 102.91 613.8 105.371C614.982 107.802 616.164 110.249 617.273 112.551C618.382 114.839 619.406 116.997 620.271 118.839C622.014 122.523 623.183 124.969 623.183 124.969C623.183 124.969 623.951 122.307 625.084 118.307C625.657 116.321 626.34 113.975 627.083 111.486C627.814 108.982 628.594 106.32 629.386 103.658C630.178 101.011 630.97 98.3486 631.726 95.8449C632.481 93.3555 633.188 91.0245 633.797 89.0387C635.016 85.0529 635.845 82.3909 635.845 82.3909L641.852 81.8729ZM657.316 85.6572C657.316 85.6572 657.511 89.8589 657.718 94.0318C657.925 98.2191 658.132 102.406 658.132 102.406C658.132 102.406 661.995 102.162 665.87 101.903C669.745 101.701 673.62 101.485 673.62 101.485L673.815 106.881C673.815 106.881 669.953 107.083 666.102 107.313C662.239 107.529 658.376 107.788 658.376 107.788C658.376 107.788 658.583 112.105 658.803 116.422C659.022 120.724 659.217 125.026 659.217 125.026C659.217 125.026 663.482 124.739 667.735 124.494C671.988 124.249 676.24 124.048 676.24 124.048L676.435 129.43C676.435 129.43 675.022 129.501 672.938 129.617C670.842 129.717 668.039 129.89 665.237 130.034C662.446 130.221 659.643 130.408 657.547 130.538C655.464 130.696 654.074 130.811 654.074 130.811C654.074 130.811 653.904 127.66 653.648 122.969C653.526 120.623 653.38 117.889 653.221 114.939C653.051 112.018 652.905 108.882 652.734 105.745C652.551 102.608 652.405 99.471 652.234 96.55C652.088 93.6001 651.942 90.8518 651.808 88.5207C651.564 83.8154 651.394 80.6929 651.394 80.6929C651.394 80.6929 652.856 80.5778 655.025 80.4339C657.206 80.2756 660.131 80.0886 663.031 79.9015C665.931 79.7288 668.856 79.5562 671.037 79.4411C673.218 79.3259 674.681 79.254 674.681 79.254L674.863 84.65C674.863 84.65 670.477 84.8658 666.09 85.1104C661.703 85.3695 657.316 85.6572 657.316 85.6572ZM726.458 78.2611L726.422 83.5708C726.422 83.5708 723.485 83.5708 720.524 83.5708C717.599 83.5564 714.662 83.5564 714.662 83.5564C714.662 83.5564 714.674 86.3623 714.687 90.564C714.699 92.6648 714.711 95.1254 714.723 97.7443C714.735 100.378 714.735 103.169 714.748 105.975C714.76 108.781 714.772 111.572 714.784 114.206C714.796 116.824 714.796 119.285 714.808 121.386C714.821 125.588 714.833 128.379 714.833 128.379L709.398 128.437C709.398 128.437 709.361 125.645 709.349 121.443C709.325 119.343 709.3 116.882 709.288 114.263C709.264 111.63 709.24 108.838 709.215 106.033C709.191 103.227 709.166 100.435 709.142 97.8018C709.13 95.183 709.093 92.7224 709.081 90.6216C709.057 86.4199 709.032 83.6284 709.032 83.6284C709.032 83.6284 706.071 83.6571 703.122 83.7147C700.161 83.7722 697.2 83.8154 697.2 83.8154L697.115 78.4914C697.115 78.4914 698.943 78.4482 701.697 78.405C703.074 78.3906 704.682 78.3475 706.376 78.3331C708.118 78.3043 709.946 78.2899 711.774 78.2611C713.614 78.2468 715.454 78.2324 717.172 78.2324C718.891 78.2468 720.487 78.2324 721.864 78.2468C724.618 78.2468 726.458 78.2611 726.458 78.2611ZM751.731 129.473C749.794 129.415 747.954 129.07 746.211 128.48C744.456 127.89 742.787 127.027 741.203 125.919C739.643 124.767 738.23 123.415 736.974 121.875C735.731 120.335 734.635 118.566 733.721 116.609C732.807 114.637 732.137 112.536 731.698 110.321C731.259 108.119 731.052 105.788 731.076 103.342C731.101 100.896 731.345 98.5788 731.832 96.3917C732.319 94.2045 733.038 92.1612 734.025 90.2187C735.013 88.2617 736.17 86.535 737.498 85.0529C738.827 83.5564 740.325 82.2901 741.995 81.2541C743.677 80.1893 745.444 79.3979 747.284 78.8943C749.124 78.405 751.049 78.1892 753.072 78.2611C755.095 78.3187 757.02 78.6928 758.848 79.3116C760.676 79.9591 762.406 80.8656 764.002 82.0599C765.623 83.2111 767.049 84.578 768.292 86.1465C769.523 87.7437 770.583 89.5136 771.448 91.5137C772.313 93.5138 772.922 95.6146 773.3 97.845C773.678 100.075 773.812 102.435 773.702 104.91C773.605 107.371 773.252 109.673 772.703 111.86C772.155 114.033 771.375 116.076 770.351 117.947C769.364 119.861 768.194 121.515 766.878 122.969C765.562 124.422 764.088 125.645 762.443 126.681C760.822 127.703 759.116 128.422 757.325 128.883C755.546 129.358 753.669 129.545 751.731 129.473ZM751.878 123.803C754.802 123.904 757.434 123.185 759.811 121.659C762.211 120.134 764.149 117.904 765.574 114.954C767.073 112.018 767.89 108.536 768.048 104.565C768.207 100.565 767.646 96.996 766.354 93.9743C765.124 90.8806 763.344 88.4632 761.005 86.7364C758.677 84.9953 755.972 84.0744 752.913 83.9449C749.879 83.8442 747.125 84.5637 744.688 86.1465C742.287 87.6861 740.362 89.9884 738.912 92.9814C737.511 95.9168 736.779 99.4134 736.731 103.428C736.67 107.399 737.303 110.939 738.595 113.975C739.899 117.04 741.715 119.4 743.993 121.098C746.345 122.782 748.965 123.688 751.878 123.803ZM825.346 84.3478L824.907 89.6431C824.907 89.6431 821.97 89.3121 819.058 88.9812C816.121 88.6646 813.197 88.3624 813.197 88.3624C813.197 88.3624 812.989 91.1396 812.685 95.3269C812.526 97.4277 812.344 99.8739 812.161 102.478C811.966 105.112 811.759 107.889 811.551 110.68C811.344 113.486 811.137 116.263 810.954 118.882C810.759 121.501 810.564 123.947 810.418 126.034C810.114 130.221 809.894 133.012 809.894 133.012L804.496 132.466C804.496 132.466 804.691 129.689 804.971 125.501C805.105 123.4 805.288 120.954 805.471 118.335C805.654 115.717 805.848 112.939 806.043 110.133C806.226 107.342 806.421 104.55 806.604 101.932C806.787 99.3271 806.945 96.8665 807.104 94.7801C807.384 90.5928 807.579 87.8013 807.579 87.8013C807.579 87.8013 804.63 87.5135 801.681 87.2545C798.732 86.9954 795.783 86.7364 795.783 86.7364L796.112 81.4412C796.112 81.4412 797.94 81.5707 800.682 81.8297C802.047 81.9448 803.655 82.0887 805.361 82.2326C807.079 82.4053 808.907 82.5779 810.735 82.7794C812.563 82.9377 814.391 83.1391 816.097 83.3262C817.815 83.4845 819.411 83.6571 820.776 83.8298C823.518 84.1176 825.346 84.3478 825.346 84.3478ZM849.632 137.991C849.632 137.991 849.157 136.624 848.426 134.595C847.707 132.538 846.732 129.818 845.757 127.098C844.77 124.379 843.783 121.659 843.04 119.616C842.284 117.587 841.797 116.22 841.797 116.22L835.155 115.328C835.155 115.328 834.68 120.436 834.205 125.53C833.742 130.624 833.254 135.718 833.254 135.718L827.856 135.041C827.856 135.041 828.136 131.933 828.551 127.242C828.758 124.911 829.002 122.177 829.257 119.256C829.501 116.335 829.794 113.227 830.062 110.105C830.342 106.982 830.622 103.86 830.878 100.939C831.134 98.0177 831.378 95.2837 831.585 92.9526C831.999 88.2761 832.267 85.168 832.267 85.168C832.267 85.168 835.74 85.6141 839.213 86.0601C842.686 86.5062 846.171 86.9811 846.171 86.9811C849.401 87.4271 852.094 88.4919 854.177 90.0892C856.285 91.7151 857.784 93.7009 858.65 96.0607C859.503 98.4206 859.783 100.982 859.466 103.788C859.088 107.227 857.906 110.105 855.92 112.479C853.982 114.824 851.302 116.206 847.865 116.58C847.865 116.58 848.389 117.976 849.181 120.076C849.961 122.177 850.997 124.969 852.02 127.775C853.044 130.566 854.068 133.358 854.835 135.473C855.591 137.574 856.091 138.984 856.091 138.984L849.632 137.991ZM835.631 110.105L843.746 111.198C846.756 111.616 849.072 111.083 850.741 109.587C852.435 108.047 853.434 105.817 853.739 102.924C854.056 99.9746 853.532 97.5716 852.191 95.7442C850.899 93.9023 848.706 92.78 845.635 92.3483L837.385 91.2259C837.385 91.2259 836.959 95.9456 836.52 100.694C836.069 105.399 835.631 110.105 835.631 110.105ZM875.271 91.4849C875.271 91.4849 875.039 93.4562 874.686 96.4061C874.32 99.3415 873.833 103.27 873.358 107.198C872.87 111.126 872.395 115.04 872.03 117.99C871.664 120.94 871.432 122.897 871.432 122.897C870.884 127.314 871.384 130.725 872.895 133.171C874.455 135.631 876.831 137.157 880.036 137.732C883.192 138.308 885.8 137.703 887.871 135.919C889.991 134.135 891.356 131.056 891.978 126.667C891.978 126.667 892.246 124.695 892.66 121.76C893.062 118.825 893.611 114.925 894.159 110.997C894.707 107.083 895.256 103.183 895.67 100.234C896.072 97.2982 896.352 95.3556 896.352 95.3556L901.933 96.4492C901.933 96.4492 901.641 98.4062 901.227 101.327C900.8 104.263 900.227 108.148 899.667 112.047C899.094 115.961 898.546 119.861 898.132 122.782C897.693 125.703 897.413 127.66 897.413 127.66C896.815 131.775 895.633 135.113 893.842 137.66C892.063 140.178 889.894 141.905 887.347 142.826C884.837 143.732 882.132 143.948 879.231 143.402C876.295 142.884 873.748 141.718 871.566 139.934C869.41 138.149 867.813 135.732 866.765 132.725C865.742 129.645 865.474 126.048 865.961 121.89C865.961 121.89 866.193 119.947 866.558 117.012C866.899 114.076 867.35 110.133 867.825 106.22C868.288 102.306 868.752 98.3918 869.105 95.442C869.434 92.5066 869.678 90.564 869.678 90.564L875.271 91.4849ZM915.959 104.809C915.959 104.809 915.326 108.925 914.68 113.04C914.034 117.17 913.388 121.285 913.388 121.285C913.388 121.285 917.19 122.12 921.004 122.997C924.818 123.846 928.62 124.753 928.62 124.753L927.719 130.034C927.719 130.034 923.929 129.142 920.151 128.293C916.349 127.444 912.559 126.595 912.559 126.595C912.559 126.595 911.889 130.84 911.231 135.085C910.561 139.329 909.903 143.574 909.903 143.574C909.903 143.574 914.083 144.51 918.275 145.445C922.454 146.409 926.622 147.373 926.622 147.373L925.708 152.683C925.708 152.683 924.343 152.337 922.296 151.862C920.237 151.388 917.47 150.754 914.729 150.121C911.987 149.517 909.221 148.913 907.161 148.467C905.102 148.035 903.725 147.718 903.725 147.718C903.725 147.718 904.188 144.639 904.895 140.006C905.236 137.689 905.662 134.998 906.101 132.092C906.54 129.199 907.003 126.106 907.478 123.012C907.953 119.918 908.416 116.839 908.843 113.947C909.294 111.04 909.708 108.335 910.061 106.033C910.756 101.399 911.219 98.2911 911.219 98.2911C911.219 98.2911 912.657 98.6076 914.802 99.0537C916.959 99.5429 919.822 100.176 922.686 100.795C925.55 101.442 928.413 102.119 930.558 102.608C932.69 103.111 934.128 103.457 934.128 103.457L933.214 108.723C933.214 108.723 928.913 107.73 924.599 106.738C920.285 105.745 915.959 104.809 915.959 104.809ZM965.69 163.172L960.425 161.676C960.425 161.676 959.572 158.856 958.293 154.668C957.647 152.568 956.904 150.121 956.075 147.488C955.259 144.869 954.381 142.063 953.504 139.286C952.602 136.495 951.712 133.689 950.872 131.07C950.006 128.451 949.214 126.005 948.52 123.904C947.143 119.731 946.217 116.94 946.217 116.94C946.217 116.94 945.778 119.371 945.108 123.026C944.767 124.868 944.377 126.998 943.95 129.286C943.548 131.574 943.097 134.02 942.658 136.452C942.22 138.883 941.769 141.329 941.342 143.603C940.94 145.905 940.55 148.049 940.209 149.877C939.539 153.532 939.1 155.978 939.1 155.978L933.775 154.64C933.775 154.64 934.323 151.56 935.14 146.956C935.542 144.653 936.029 141.963 936.541 139.085C937.053 136.207 937.589 133.142 938.125 130.063C938.686 126.983 939.222 123.904 939.746 121.041C940.258 118.148 940.733 115.458 941.135 113.17C941.964 108.565 942.5 105.486 942.5 105.486L948.044 106.881C948.044 106.881 948.983 109.673 950.384 113.846C951.091 115.932 951.895 118.393 952.76 120.997C953.626 123.616 954.527 126.408 955.429 129.214C956.331 132.005 957.208 134.797 958.037 137.416C958.878 140.034 959.633 142.495 960.291 144.596C961.583 148.783 962.448 151.589 962.448 151.589C962.448 151.589 962.936 149.157 963.667 145.531C964.032 143.704 964.459 141.588 964.91 139.315C965.373 137.041 965.86 134.624 966.348 132.192C966.835 129.76 967.322 127.343 967.773 125.07C968.224 122.81 968.651 120.681 969.016 118.853C969.747 115.227 970.235 112.795 970.235 112.795L975.731 114.35C975.731 114.35 975.097 117.414 974.159 121.99C973.696 124.264 973.135 126.94 972.55 129.804C971.965 132.653 971.344 135.703 970.71 138.768C970.076 141.819 969.455 144.869 968.858 147.718C968.285 150.582 967.737 153.258 967.262 155.532C966.323 160.108 965.69 163.172 965.69 163.172ZM998.128 121.156C1000.42 121.875 1002.48 122.796 1004.33 123.918C1006.18 125.055 1007.83 126.379 1009.24 127.933C1010.69 129.43 1011.86 131.113 1012.82 132.941C1013.75 134.739 1014.43 136.725 1014.87 138.826C1015.31 140.955 1015.49 143.157 1015.41 145.445C1015.33 147.747 1014.99 150.121 1014.38 152.596C1013.79 155.057 1013.01 157.287 1012.04 159.273C1011.09 161.273 1009.96 163.029 1008.64 164.568C1007.36 166.093 1005.93 167.331 1004.37 168.295C1002.8 169.274 1001.1 169.993 999.261 170.425C997.434 170.828 995.533 170.986 993.534 170.856C991.523 170.712 989.427 170.324 987.234 169.619C987.234 169.619 984.102 168.64 980.958 167.691C977.827 166.741 974.683 165.791 974.683 165.791C974.683 165.791 975.341 162.755 976.303 158.194C976.791 155.92 977.364 153.258 977.961 150.409C978.57 147.56 979.228 144.51 979.886 141.473C980.52 138.437 981.178 135.387 981.775 132.538C982.384 129.703 982.969 127.041 983.444 124.753C984.431 120.206 985.077 117.17 985.077 117.17C985.077 117.17 988.343 118.148 991.609 119.127C994.862 120.148 998.128 121.156 998.128 121.156ZM988.404 164.41C991.012 165.23 993.412 165.547 995.581 165.36C997.763 165.173 999.737 164.496 1001.49 163.316C1003.25 162.093 1004.76 160.453 1006 158.352C1007.24 156.266 1008.23 153.747 1008.94 150.769C1009.66 147.747 1009.95 144.97 1009.8 142.38C1009.64 139.804 1009.06 137.444 1008.04 135.286C1007.02 133.128 1005.6 131.3 1003.75 129.804C1001.91 128.307 999.639 127.142 996.97 126.293L989.427 123.976C989.427 123.976 988.903 126.35 988.124 129.948C987.734 131.717 987.283 133.818 986.795 136.049C986.308 138.293 985.784 140.668 985.272 143.056C984.748 145.445 984.224 147.833 983.737 150.078C983.237 152.309 982.774 154.395 982.396 156.179C981.616 159.762 981.092 162.151 981.092 162.151L988.404 164.41ZM1027.92 183.936C1025.29 183.001 1023.08 181.591 1021.27 179.735C1019.5 177.85 1018.27 175.734 1017.58 173.346C1016.89 170.9 1016.86 168.353 1017.47 165.719L1023.08 167.691C1022.71 170.007 1022.99 172.18 1023.93 174.238C1024.92 176.238 1026.72 177.706 1029.31 178.655C1031.8 179.562 1033.94 179.547 1035.73 178.627C1037.6 177.662 1038.84 175.993 1039.46 173.662C1039.96 171.835 1039.94 170.209 1039.39 168.741C1038.87 167.273 1038.02 166.007 1036.9 164.957C1035.79 163.863 1034.22 162.611 1032.25 161.129C1029.77 159.345 1027.84 157.748 1026.41 156.338C1025.03 154.942 1023.97 153.157 1023.24 151.013C1022.57 148.812 1022.59 146.207 1023.33 143.243C1023.99 140.61 1025.16 138.466 1026.79 136.854C1028.43 135.228 1030.44 134.25 1032.8 133.861C1035.17 133.53 1037.7 133.833 1040.4 134.826C1042.34 135.531 1044.03 136.452 1045.47 137.588C1046.9 138.739 1048.08 140.106 1048.99 141.704C1050.87 144.855 1051.45 148.366 1050.75 152.179L1044.89 149.977C1045.19 148.049 1044.79 146.164 1043.69 144.236C1042.62 142.265 1040.89 140.869 1038.48 139.991C1036.22 139.171 1034.21 139.185 1032.44 140.049C1030.68 140.869 1029.49 142.509 1028.86 144.956C1028.43 146.682 1028.47 148.28 1029.01 149.675C1029.6 151.071 1030.42 152.28 1031.47 153.316C1032.55 154.323 1034.14 155.575 1036.16 157.143C1038.61 159 1040.53 160.654 1041.92 162.151C1043.34 163.59 1044.37 165.403 1045.04 167.633C1045.73 169.792 1045.64 172.396 1044.82 175.403C1044.19 177.734 1043.06 179.735 1041.47 181.389C1039.89 183.044 1037.93 184.138 1035.56 184.656C1033.21 185.202 1030.65 184.958 1027.92 183.936Z" fill="black"/>
<path d="M681.071 642C680.851 642 680.681 641.94 680.561 641.82C680.441 641.68 680.381 641.51 680.381 641.31V621.69C680.381 621.49 680.441 621.33 680.561 621.21C680.681 621.07 680.851 621 681.071 621H682.661C682.861 621 683.021 621.07 683.141 621.21C683.261 621.33 683.321 621.49 683.321 621.69V639.39H693.311C693.531 639.39 693.701 639.46 693.821 639.6C693.941 639.72 694.001 639.89 694.001 640.11V641.31C694.001 641.51 693.941 641.68 693.821 641.82C693.701 641.94 693.531 642 693.311 642H681.071ZM702.963 642.3C701.443 642.3 700.173 642.01 699.153 641.43C698.133 640.85 697.353 640.05 696.813 639.03C696.273 637.99 695.973 636.81 695.913 635.49C695.893 635.15 695.883 634.72 695.883 634.2C695.883 633.66 695.893 633.23 695.913 632.91C695.973 631.57 696.273 630.39 696.813 629.37C697.373 628.35 698.163 627.55 699.183 626.97C700.203 626.39 701.463 626.1 702.963 626.1C704.463 626.1 705.723 626.39 706.743 626.97C707.763 627.55 708.543 628.35 709.083 629.37C709.643 630.39 709.953 631.57 710.013 632.91C710.033 633.23 710.043 633.66 710.043 634.2C710.043 634.72 710.033 635.15 710.013 635.49C709.953 636.81 709.653 637.99 709.113 639.03C708.573 640.05 707.793 640.85 706.773 641.43C705.753 642.01 704.483 642.3 702.963 642.3ZM702.963 639.99C704.203 639.99 705.193 639.6 705.933 638.82C706.673 638.02 707.073 636.86 707.133 635.34C707.153 635.04 707.163 634.66 707.163 634.2C707.163 633.74 707.153 633.36 707.133 633.06C707.073 631.54 706.673 630.39 705.933 629.61C705.193 628.81 704.203 628.41 702.963 628.41C701.723 628.41 700.723 628.81 699.963 629.61C699.223 630.39 698.833 631.54 698.793 633.06C698.773 633.36 698.763 633.74 698.763 634.2C698.763 634.66 698.773 635.04 698.793 635.34C698.833 636.86 699.223 638.02 699.963 638.82C700.723 639.6 701.723 639.99 702.963 639.99ZM720.189 648.6C718.829 648.6 717.709 648.42 716.829 648.06C715.969 647.7 715.289 647.26 714.789 646.74C714.309 646.24 713.959 645.73 713.739 645.21C713.539 644.71 713.429 644.31 713.409 644.01C713.389 643.81 713.449 643.64 713.589 643.5C713.749 643.36 713.919 643.29 714.099 643.29H715.539C715.719 643.29 715.869 643.33 715.989 643.41C716.109 643.49 716.209 643.66 716.289 643.92C716.409 644.22 716.589 644.55 716.829 644.91C717.069 645.29 717.439 645.61 717.939 645.87C718.439 646.15 719.139 646.29 720.039 646.29C720.979 646.29 721.769 646.16 722.409 645.9C723.049 645.66 723.529 645.22 723.849 644.58C724.189 643.96 724.359 643.1 724.359 642V639.96C723.879 640.58 723.249 641.1 722.469 641.52C721.689 641.92 720.709 642.12 719.529 642.12C718.409 642.12 717.449 641.93 716.649 641.55C715.849 641.15 715.189 640.62 714.669 639.96C714.169 639.28 713.789 638.51 713.529 637.65C713.289 636.79 713.149 635.89 713.109 634.95C713.089 634.39 713.089 633.84 713.109 633.3C713.149 632.36 713.289 631.46 713.529 630.6C713.789 629.74 714.169 628.97 714.669 628.29C715.189 627.61 715.849 627.08 716.649 626.7C717.449 626.3 718.409 626.1 719.529 626.1C720.729 626.1 721.719 626.33 722.499 626.79C723.299 627.23 723.949 627.77 724.449 628.41V627.12C724.449 626.92 724.509 626.75 724.629 626.61C724.769 626.47 724.939 626.4 725.139 626.4H726.519C726.719 626.4 726.889 626.47 727.029 626.61C727.169 626.75 727.239 626.92 727.239 627.12V641.67C727.239 643.01 727.009 644.2 726.549 645.24C726.109 646.28 725.369 647.1 724.329 647.7C723.309 648.3 721.929 648.6 720.189 648.6ZM720.129 639.72C721.129 639.72 721.929 639.49 722.529 639.03C723.149 638.57 723.599 637.99 723.879 637.29C724.179 636.59 724.339 635.88 724.359 635.16C724.379 634.88 724.389 634.54 724.389 634.14C724.389 633.72 724.379 633.37 724.359 633.09C724.339 632.37 724.179 631.66 723.879 630.96C723.599 630.26 723.149 629.68 722.529 629.22C721.929 628.76 721.129 628.53 720.129 628.53C719.129 628.53 718.329 628.76 717.729 629.22C717.129 629.66 716.699 630.25 716.439 630.99C716.179 631.71 716.029 632.49 715.989 633.33C715.969 633.85 715.969 634.38 715.989 634.92C716.029 635.76 716.179 636.55 716.439 637.29C716.699 638.01 717.129 638.6 717.729 639.06C718.329 639.5 719.129 639.72 720.129 639.72ZM740.133 642C739.913 642 739.743 641.94 739.623 641.82C739.503 641.68 739.443 641.51 739.443 641.31V621.69C739.443 621.49 739.503 621.33 739.623 621.21C739.743 621.07 739.913 621 740.133 621H741.723C741.923 621 742.083 621.07 742.203 621.21C742.343 621.33 742.413 621.49 742.413 621.69V641.31C742.413 641.51 742.343 641.68 742.203 641.82C742.083 641.94 741.923 642 741.723 642H740.133ZM747.946 642C747.746 642 747.576 641.94 747.436 641.82C747.316 641.68 747.256 641.51 747.256 641.31V627.09C747.256 626.89 747.316 626.73 747.436 626.61C747.576 626.47 747.746 626.4 747.946 626.4H749.356C749.556 626.4 749.716 626.47 749.836 626.61C749.976 626.73 750.046 626.89 750.046 627.09V628.41C750.566 627.73 751.216 627.18 751.996 626.76C752.796 626.32 753.816 626.1 755.056 626.1C756.356 626.1 757.456 626.39 758.356 626.97C759.276 627.53 759.966 628.32 760.426 629.34C760.886 630.34 761.116 631.51 761.116 632.85V641.31C761.116 641.51 761.056 641.68 760.936 641.82C760.816 641.94 760.656 642 760.456 642H758.956C758.756 642 758.586 641.94 758.446 641.82C758.326 641.68 758.266 641.51 758.266 641.31V633C758.266 631.6 757.926 630.51 757.246 629.73C756.566 628.93 755.566 628.53 754.246 628.53C753.006 628.53 752.006 628.93 751.246 629.73C750.506 630.51 750.136 631.6 750.136 633V641.31C750.136 641.51 750.066 641.68 749.926 641.82C749.806 641.94 749.646 642 749.446 642H747.946Z" fill="white"/>
<ellipse cx="47.7132" cy="14.1772" rx="75" ry="50" transform="rotate(-39.2602 47.7132 14.1772)" fill="#212C60"/>
<ellipse cx="26.7132" cy="111.177" rx="75" ry="50" transform="rotate(-39.2602 26.7132 111.177)" fill="#212C60"/>
<ellipse cx="21.7132" cy="191.177" rx="75" ry="50" transform="rotate(-39.2602 21.7132 191.177)" fill="#212C60"/>
<ellipse cx="107.713" cy="-16.8228" rx="75" ry="50" transform="rotate(-39.2602 107.713 -16.8228)" fill="#708FFD"/>
<ellipse cx="86.7132" cy="80.1772" rx="75" ry="50" transform="rotate(-39.2602 86.7132 80.1772)" fill="#708FFD"/>
<ellipse cx="81.7132" cy="160.177" rx="75" ry="50" transform="rotate(-39.2602 81.7132 160.177)" fill="#708FFD"/>
<ellipse cx="187.713" cy="-56.8228" rx="75" ry="50" transform="rotate(-39.2602 187.713 -56.8228)" fill="#87E2FF"/>
<ellipse cx="166.713" cy="40.1772" rx="75" ry="50" transform="rotate(-39.2602 166.713 40.1772)" fill="#87E2FF"/>
<ellipse cx="161.713" cy="120.177" rx="75" ry="50" transform="rotate(-39.2602 161.713 120.177)" fill="#87E2FF"/>
<ellipse rx="75.0002" ry="49.9999" transform="matrix(-0.774287 0.632835 -0.632851 -0.774274 1390.72 888.174)" fill="#212C60"/>
<ellipse rx="75.0002" ry="49.9999" transform="matrix(-0.774287 0.632835 -0.632851 -0.774274 1411.72 791.175)" fill="#212C60"/>
<ellipse rx="75.0002" ry="49.9999" transform="matrix(-0.774287 0.632835 -0.632851 -0.774274 1416.72 711.176)" fill="#212C60"/>
<ellipse rx="75.0002" ry="49.9999" transform="matrix(-0.774287 0.632835 -0.632851 -0.774274 1330.71 919.174)" fill="#708FFD"/>
<ellipse rx="75.0002" ry="49.9999" transform="matrix(-0.774287 0.632835 -0.632851 -0.774274 1351.72 822.175)" fill="#708FFD"/>
<ellipse rx="75.0002" ry="49.9999" transform="matrix(-0.774287 0.632835 -0.632851 -0.774274 1356.72 742.176)" fill="#708FFD"/>
<ellipse rx="75.0002" ry="49.9999" transform="matrix(-0.774287 0.632835 -0.632851 -0.774274 1250.71 959.174)" fill="#87E2FF"/>
<ellipse rx="75.0002" ry="49.9999" transform="matrix(-0.774287 0.632835 -0.632851 -0.774274 1271.71 862.175)" fill="#87E2FF"/>
<ellipse rx="75.0002" ry="49.9999" transform="matrix(-0.774287 0.632835 -0.632851 -0.774274 1276.71 782.176)" fill="#87E2FF"/>
</svg>
